<svg id="Слой_2" data-name="Слой 2" xmlns="http://www.w3.org/2000/svg" viewBox="0 0 2500 1338.69"><defs><style>.cls-1{fill:#d9e9fe;}.cls-2{fill:#aed3ff;}.cls-3{fill:#739af0;}.cls-4{fill:#f3f9ff;}.cls-5{fill:#fb7369;}.cls-6{fill:#a6c7f9;}.cls-7{fill:#e57970;}.cls-8{fill:#3a4ace;}.cls-9{fill:#6d89d0;}.cls-10{fill:#f2564b;}.cls-11{fill:#163560;}.cls-12{fill:#1c468a;}.cls-13{fill:#fc9490;}.cls-14{fill:#fca56b;}.cls-15{fill:#e37970;}.cls-16{fill:#ff8585;}.cls-17{fill:#e7f1fd;}.cls-18{fill:#c45446;}.cls-19{fill:#4a75cb;}.cls-20{fill:#202f4e;}</style></defs><path class="cls-1" d="M3189.35,673.77c-98.31-83.86-216.83-589.6-622.84-326.19C2356.74,483.67,2003,230.75,1710.25,318.1c-268.88,80.23-294.79,344.56-268.78,430.69,52.55,174-111,199.88-262.69,274.63-238,117.26-63,529.35,161.83,531.32s1586.77-3.93,1586.77-3.93,326.59.83,462.4-179.42C3535.93,1177.42,3443.29,890.38,3189.35,673.77Z" transform="translate(-959.27 -216.45)"/><rect class="cls-2" x="2775.07" y="362.62" width="559.71" height="940.39" transform="translate(5150.57 1449.18) rotate(180)"/><rect class="cls-3" x="1798.25" y="146.17" width="559.7" height="940.39"/><rect class="cls-4" x="1836.37" y="198.71" width="484.8" height="327.55"/><rect class="cls-4" x="2052.62" y="833.64" width="260.19" height="174.89"/><path class="cls-5" d="M2815.63,582.33S2898.4,572,2949,618.62s144.8,4.13,182.74,0c66-7.18,117.68,14.4,133,38.12v71.17H2815.63Z" transform="translate(-959.27 -216.45)"/><rect class="cls-6" x="1920.52" y="251.36" width="3.47" height="111.13"/><rect class="cls-6" x="2056.64" y="299.04" width="3.47" height="111.13"/><rect class="cls-6" x="2197.09" y="273.9" width="3.47" height="111.13"/><path class="cls-6" d="M2922,484.85H2895.4a2.9,2.9,0,0,1-2.89-2.89h0a2.9,2.9,0,0,1,2.89-2.89H2922a2.9,2.9,0,0,1,2.89,2.89h0A2.9,2.9,0,0,1,2922,484.85Z" transform="translate(-959.27 -216.45)"/><path class="cls-6" d="M2922,495.26H2895.4a2.9,2.9,0,0,1-2.89-2.89h0a2.9,2.9,0,0,1,2.89-2.89H2922a2.9,2.9,0,0,1,2.89,2.89h0A2.9,2.9,0,0,1,2922,495.26Z" transform="translate(-959.27 -216.45)"/><path class="cls-6" d="M3056.08,541.5h-26.59a2.9,2.9,0,0,1-2.89-2.89h0a2.9,2.9,0,0,1,2.89-2.89h26.59a2.9,2.9,0,0,1,2.89,2.89h0A2.9,2.9,0,0,1,3056.08,541.5Z" transform="translate(-959.27 -216.45)"/><path class="cls-6" d="M3056.08,551.69h-26.59a2.9,2.9,0,0,1-2.89-2.89h0a2.9,2.9,0,0,1,2.89-2.89h26.59a2.9,2.9,0,0,1,2.89,2.89h0A2.9,2.9,0,0,1,3056.08,551.69Z" transform="translate(-959.27 -216.45)"/><path class="cls-6" d="M3198.85,499.59h-26.59a2.9,2.9,0,0,1-2.89-2.89h0a2.9,2.9,0,0,1,2.89-2.89h26.59a2.9,2.9,0,0,1,2.89,2.89h0A2.9,2.9,0,0,1,3198.85,499.59Z" transform="translate(-959.27 -216.45)"/><path class="cls-6" d="M3198.85,509.78h-26.59a2.9,2.9,0,0,1-2.89-2.89h0a2.9,2.9,0,0,1,2.89-2.89h26.59a2.9,2.9,0,0,1,2.89,2.89h0A2.9,2.9,0,0,1,3198.85,509.78Z" transform="translate(-959.27 -216.45)"/><circle class="cls-4" cx="3232.57" cy="826.49" r="47.87" transform="translate(939.68 3668.49) rotate(-80.78)"/><path class="cls-5" d="M3276.38,826.49A43.81,43.81,0,0,1,3203,858.78l29.61-32.29V782.68A43.81,43.81,0,0,1,3276.38,826.49Z" transform="translate(-959.27 -216.45)"/><path class="cls-6" d="M3215.89,818.77h-15.74a1.31,1.31,0,0,1-1.31-1.31h0a1.32,1.32,0,0,1,1.31-1.32h15.74a1.32,1.32,0,0,1,1.31,1.32h0A1.31,1.31,0,0,1,3215.89,818.77Z" transform="translate(-959.27 -216.45)"/><path class="cls-4" d="M3065.86,826.49a47.87,47.87,0,1,1,47.87,47.87A47.87,47.87,0,0,1,3065.86,826.49Z" transform="translate(-959.27 -216.45)"/><path class="cls-7" d="M3113.73,826.49l26.92,34.57a43.82,43.82,0,1,1,16.7-38.57Z" transform="translate(-959.27 -216.45)"/><path class="cls-6" d="M3147.46,837.32h-10.95a1.32,1.32,0,0,1-1.32-1.31h0a1.33,1.33,0,0,1,1.32-1.32h10.95a1.32,1.32,0,0,1,1.32,1.32h0A1.32,1.32,0,0,1,3147.46,837.32Z" transform="translate(-959.27 -216.45)"/><path class="cls-4" d="M3184.7,958.33a47.87,47.87,0,1,1,47.87,47.87A47.87,47.87,0,0,1,3184.7,958.33Z" transform="translate(-959.27 -216.45)"/><path class="cls-5" d="M3276.38,958.33A43.81,43.81,0,0,1,3203,990.62l29.61-32.29V914.52A43.81,43.81,0,0,1,3276.38,958.33Z" transform="translate(-959.27 -216.45)"/><path class="cls-6" d="M3215.89,950.62h-15.74a1.32,1.32,0,0,1-1.31-1.32h0a1.32,1.32,0,0,1,1.31-1.32h15.74a1.32,1.32,0,0,1,1.31,1.32h0A1.32,1.32,0,0,1,3215.89,950.62Z" transform="translate(-959.27 -216.45)"/><path class="cls-4" d="M3065.86,958.33a47.87,47.87,0,1,1,47.87,47.87A47.87,47.87,0,0,1,3065.86,958.33Z" transform="translate(-959.27 -216.45)"/><path class="cls-5" d="M3157.35,954.33a43.79,43.79,0,1,0-16.7,38.57l-26.92-34.57Z" transform="translate(-959.27 -216.45)"/><path class="cls-6" d="M3147.46,969.17h-10.95a1.33,1.33,0,0,1-1.32-1.32h0a1.33,1.33,0,0,1,1.32-1.32h10.95a1.32,1.32,0,0,1,1.32,1.32h0A1.33,1.33,0,0,1,3147.46,969.17Z" transform="translate(-959.27 -216.45)"/><polygon class="cls-6" points="2301.59 996.31 2062.77 996.31 2062.77 855.19 2065.74 855.19 2065.74 993.34 2301.59 993.34 2301.59 996.31"/><path class="cls-6" d="M3096.7,1161.72c-29.24-23.27-60.33,0-60.33,0v39.79h218.57V1098.67C3195.54,1100.17,3125.93,1185,3096.7,1161.72Z" transform="translate(-959.27 -216.45)"/><path class="cls-6" d="M3038.88,1082.4h101.84a2.5,2.5,0,0,0,0-5H3038.88a2.5,2.5,0,1,0,0,5Z" transform="translate(-959.27 -216.45)"/><path class="cls-6" d="M3038.88,1094.63h101.84a2.51,2.51,0,0,0,0-5H3038.88a2.51,2.51,0,1,0,0,5Z" transform="translate(-959.27 -216.45)"/><rect class="cls-6" x="2077.1" y="884.72" width="71.53" height="5" rx="2.05"/><rect class="cls-3" x="939.82" width="765.82" height="1154.94"/><rect class="cls-4" x="1013.82" y="64.6" width="616.58" height="687.25"/><path class="cls-4" d="M1986.2,1187.87a110.89,110.89,0,1,1,110.88,110.88A110.88,110.88,0,0,1,1986.2,1187.87Z" transform="translate(-959.27 -216.45)"/><path class="cls-5" d="M2190.82,1187.87a93.73,93.73,0,1,0-36.88,74.52l-56.85-74.52,87.59,33.43A93.68,93.68,0,0,0,2190.82,1187.87Z" transform="translate(-959.27 -216.45)"/><path class="cls-4" d="M2364,1187.87a110.89,110.89,0,1,1,110.89,110.88A110.88,110.88,0,0,1,2364,1187.87Z" transform="translate(-959.27 -216.45)"/><path class="cls-5" d="M2474.9,1094.13a93.74,93.74,0,0,0-66.81,159.49l66.81-65.75,87.59,33.43a93.81,93.81,0,0,0-87.59-127.17Z" transform="translate(-959.27 -216.45)"/><path class="cls-6" d="M2461.2,1140.28h-39.9a2.86,2.86,0,0,0-2.85,2.85h0a2.86,2.86,0,0,0,2.85,2.85h39.9a2.86,2.86,0,0,0,2.85-2.85h0A2.86,2.86,0,0,0,2461.2,1140.28Z" transform="translate(-959.27 -216.45)"/><path class="cls-6" d="M2461.2,1149.3h-39.9a2.85,2.85,0,0,0,0,5.7h39.9a2.85,2.85,0,1,0,0-5.7Z" transform="translate(-959.27 -216.45)"/><path class="cls-6" d="M2437.78,1158.33H2421.3a2.85,2.85,0,0,0,0,5.7h16.48a2.85,2.85,0,0,0,0-5.7Z" transform="translate(-959.27 -216.45)"/><path class="cls-6" d="M2082.62,1140.28h-39.9a2.86,2.86,0,0,0-2.85,2.85h0a2.86,2.86,0,0,0,2.85,2.85h39.9a2.86,2.86,0,0,0,2.85-2.85h0A2.86,2.86,0,0,0,2082.62,1140.28Z" transform="translate(-959.27 -216.45)"/><path class="cls-6" d="M2082.62,1149.3h-39.9a2.85,2.85,0,0,0,0,5.7h39.9a2.85,2.85,0,0,0,0-5.7Z" transform="translate(-959.27 -216.45)"/><path class="cls-6" d="M2059.2,1158.33h-16.48a2.85,2.85,0,0,0,0,5.7h16.48a2.85,2.85,0,1,0,0-5.7Z" transform="translate(-959.27 -216.45)"/><rect class="cls-6" x="1068.72" y="310.21" width="65.06" height="405.3"/><rect class="cls-6" x="1175.31" y="197.24" width="65.06" height="518.28"/><rect class="cls-6" x="1291.62" y="408.23" width="65.06" height="307.29"/><rect class="cls-6" x="1404.8" y="266.43" width="65.06" height="449.09"/><rect class="cls-6" x="1518.56" y="468.37" width="65.06" height="247.14"/><path class="cls-6" d="M2426.05,424.45H2371a5.7,5.7,0,1,0,0,11.4h55.1a5.7,5.7,0,0,0,0-11.4Z" transform="translate(-959.27 -216.45)"/><path class="cls-6" d="M2383.5,445.19H2371a5.7,5.7,0,1,0,0,11.4h12.55a5.7,5.7,0,0,0,0-11.4Z" transform="translate(-959.27 -216.45)"/><path class="cls-6" d="M2199,336.18h-55.1a5.7,5.7,0,0,0,0,11.4H2199a5.7,5.7,0,0,0,0-11.4Z" transform="translate(-959.27 -216.45)"/><path class="cls-6" d="M2156.44,356.92H2143.9a5.71,5.71,0,0,0-5.7,5.7h0a5.72,5.72,0,0,0,5.7,5.7h12.54a5.73,5.73,0,0,0,5.71-5.7h0A5.72,5.72,0,0,0,2156.44,356.92Z" transform="translate(-959.27 -216.45)"/><path class="cls-6" d="M2311,564.18h-55.1a5.7,5.7,0,0,0,0,11.4H2311a5.7,5.7,0,0,0,0-11.4Z" transform="translate(-959.27 -216.45)"/><path class="cls-6" d="M2268.43,584.92h-12.55a5.72,5.72,0,0,0-5.7,5.7h0a5.71,5.71,0,0,0,5.7,5.7h12.55a5.72,5.72,0,0,0,5.7-5.7h0A5.72,5.72,0,0,0,2268.43,584.92Z" transform="translate(-959.27 -216.45)"/><path class="cls-6" d="M2537.92,624.67h-55.1a5.7,5.7,0,0,0,0,11.4h55.1a5.7,5.7,0,0,0,0-11.4Z" transform="translate(-959.27 -216.45)"/><path class="cls-6" d="M2495.37,645.41h-12.55a5.7,5.7,0,0,0,0,11.4h12.55a5.7,5.7,0,1,0,0-11.4Z" transform="translate(-959.27 -216.45)"/><rect class="cls-2" x="276.77" y="437.79" width="559.71" height="315.1"/><rect class="cls-3" x="294.97" y="437.79" width="559.71" height="315.1"/><circle class="cls-4" cx="1407.32" cy="804.66" r="101.2" transform="translate(-1116.06 1014.36) rotate(-45)"/><path class="cls-4" d="M1751,748.13H1583.38a11.08,11.08,0,0,0-11,11h0a11.08,11.08,0,0,0,11,11H1751a11.08,11.08,0,0,0,11-11h0A11.08,11.08,0,0,0,1751,748.13Z" transform="translate(-959.27 -216.45)"/><path class="cls-4" d="M1751,793.62H1583.38a11.08,11.08,0,0,0-11,11h0a11.08,11.08,0,0,0,11,11.05H1751a11.08,11.08,0,0,0,11-11.05h0A11.08,11.08,0,0,0,1751,793.62Z" transform="translate(-959.27 -216.45)"/><path class="cls-4" d="M1751,839.1H1583.38a11.05,11.05,0,0,0,0,22.1H1751a11,11,0,0,0,0-22.1Z" transform="translate(-959.27 -216.45)"/><path class="cls-8" d="M1314.66,803.19h92.66V710.54A92.66,92.66,0,0,0,1314.66,803.19Z" transform="translate(-959.27 -216.45)"/><path class="cls-8" d="M1500,806.18H1314.66a92.67,92.67,0,0,0,92.66,92.66h0A92.67,92.67,0,0,0,1500,806.18Z" transform="translate(-959.27 -216.45)"/><path class="cls-9" d="M1391.32,755.56H1341a5.2,5.2,0,0,0,0,10.4h50.29a5.2,5.2,0,0,0,0-10.4Z" transform="translate(-959.27 -216.45)"/><path class="cls-9" d="M1352.48,774.49H1341a5.2,5.2,0,0,0,0,10.4h11.45a5.2,5.2,0,1,0,0-10.4Z" transform="translate(-959.27 -216.45)"/><path class="cls-6" d="M1466,828.83h-50.29a5.2,5.2,0,0,0,0,10.4H1466a5.2,5.2,0,1,0,0-10.4Z" transform="translate(-959.27 -216.45)"/><path class="cls-6" d="M1427.14,847.76h-11.45a5.22,5.22,0,0,0-5.2,5.2h0a5.22,5.22,0,0,0,5.2,5.2h11.45a5.22,5.22,0,0,0,5.2-5.2h0A5.22,5.22,0,0,0,1427.14,847.76Z" transform="translate(-959.27 -216.45)"/><path class="cls-2" d="M1196.63,1025.76V1348h559.7V1025.76Z" transform="translate(-959.27 -216.45)"/><path class="cls-3" d="M1214.83,1025.76V1348h559.7V1025.76Z" transform="translate(-959.27 -216.45)"/><circle class="cls-4" cx="1367.89" cy="1176.93" r="101.2" transform="translate(-1252.76 1664.83) rotate(-63.68)"/><path class="cls-4" d="M1544,1142.49h167.65a11,11,0,0,0,0-22.09H1544a11,11,0,1,0,0,22.09Z" transform="translate(-959.27 -216.45)"/><path class="cls-4" d="M1711.61,1165.89H1544a11,11,0,1,0,0,22.09h167.65a11,11,0,0,0,0-22.09Z" transform="translate(-959.27 -216.45)"/><path class="cls-4" d="M1711.61,1211.37H1544a11.08,11.08,0,0,0-11,11.05h0a11.09,11.09,0,0,0,11,11h167.65a11.08,11.08,0,0,0,11-11h0A11.08,11.08,0,0,0,1711.61,1211.37Z" transform="translate(-959.27 -216.45)"/><path class="cls-8" d="M1367.9,1178.58l-92.65-1.18c0,.39,0,.79,0,1.18a92.66,92.66,0,0,0,142.37,78.19Z" transform="translate(-959.27 -216.45)"/><rect class="cls-6" x="356.54" y="991.31" width="60.69" height="10.4" rx="5.2"/><path class="cls-6" d="M1332.47,1226.68H1321a5.21,5.21,0,0,0,0,10.41h11.45a5.21,5.21,0,1,0,0-10.41Z" transform="translate(-959.27 -216.45)"/><rect class="cls-2" x="237.35" y="94.14" width="559.71" height="292.01"/><rect class="cls-3" x="255.55" y="94.14" width="559.71" height="292.01"/><circle class="cls-4" cx="1367.9" cy="460.88" r="101.2" transform="translate(-1034.67 222.99) rotate(-17.77)"/><path class="cls-8" d="M1367.9,368.23a92.66,92.66,0,0,0-44.47,173.95c14.84-27.49,44.47-81.3,44.47-81.3l43.87,81.62a92.66,92.66,0,0,0-43.87-174.27Z" transform="translate(-959.27 -216.45)"/><rect class="cls-4" x="573.64" y="187.9" width="189.74" height="22.09" rx="11.05"/><path class="cls-4" d="M1711.61,449.84H1544a11,11,0,1,0,0,22.09h167.65a11,11,0,0,0,0-22.09Z" transform="translate(-959.27 -216.45)"/><path class="cls-4" d="M1711.61,495.32H1544a11.05,11.05,0,1,0,0,22.1h167.65a11.05,11.05,0,0,0,0-22.1Z" transform="translate(-959.27 -216.45)"/><path class="cls-9" d="M1371.31,416.63H1321a5.21,5.21,0,0,0,0,10.41h50.29a5.21,5.21,0,0,0,0-10.41Z" transform="translate(-959.27 -216.45)"/><path class="cls-9" d="M1332.48,435.56H1321a5.22,5.22,0,0,0-5.2,5.2h0a5.22,5.22,0,0,0,5.2,5.2h11.46a5.22,5.22,0,0,0,5.2-5.2h0A5.22,5.22,0,0,0,1332.48,435.56Z" transform="translate(-959.27 -216.45)"/><path class="cls-10" d="M1904.35,814.89s65.29,67.4,68.43,92.81-31.07,65.17-31.07,65.17Z" transform="translate(-959.27 -216.45)"/><path class="cls-11" d="M1876.44,1514.07s-2.22,35.83-9.15,36.34c-.93.07-35.16.07-35.16.07l-43.71-.25s.29-10.53,13.07-12.76,34.15-11.2,41.89-28.09C1851.52,1491.62,1876.44,1514.07,1876.44,1514.07Z" transform="translate(-959.27 -216.45)"/><path class="cls-11" d="M1973.79,1514.07s-2.22,35.83-9.16,36.34c-.92.07-35.16.07-35.16.07l-43.83-.15s.41-10.63,13.19-12.86,34.16-11.2,41.9-28.09C1948.87,1491.62,1973.79,1514.07,1973.79,1514.07Z" transform="translate(-959.27 -216.45)"/><path class="cls-11" d="M1828,1129.84s11.43,73.11,54.07,202.88,48.45,186,48.45,186a188.19,188.19,0,0,0,23.72,1.67c7.71,0,22-3,22-3s.39-141.83-19.27-207.09-4.24-235.26-4.24-235.26Z" transform="translate(-959.27 -216.45)"/><path class="cls-12" d="M1805.78,1079.06s-1.62,110.17,17.44,245.43,12.6,192.69,12.6,192.69,15.69,2.81,21.21,3c5.89.2,24.44-1.47,24.44-1.47s27.28-135.32,19.46-203,37.36-232.32,37.36-232.32Z" transform="translate(-959.27 -216.45)"/><path class="cls-13" d="M1894.15,821.26l-21.53,15.94-31.12-6.55c.43-2.84,2.49-14.6,4.36-25.25.11-.63.22-1.26.33-1.87,1.6-9.06,3-16.85,3-16.85l29.06-14.49,10.84-5.4c0,.19-.84,10.06-1,11.5C1886.09,803.88,1894.15,821.26,1894.15,821.26Z" transform="translate(-959.27 -216.45)"/><path class="cls-10" d="M1843.68,813.21c.68-.29,42.33-12.58,46.86-11.08s7.2,10.24,7.2,10.24l-68.12,15.41S1835,816.87,1843.68,813.21Z" transform="translate(-959.27 -216.45)"/><path class="cls-5" d="M1955.83,1092.66c-7.06,32.21-124.55,36-154.84,6.79-3.44-3.33-3.61-18.83-2.31-39.74,2.54-40.83,10.7-102.27,11-133.65a248.49,248.49,0,0,1,5-44.74,363.52,363.52,0,0,1,14.9-53.55s57.39-18.55,68.13-15.39C1949.47,827.57,1962.89,1060.46,1955.83,1092.66Z" transform="translate(-959.27 -216.45)"/><path class="cls-10" d="M1798.68,1059.71c2.54-40.83,10.7-102.27,11-133.65a248.49,248.49,0,0,1,5-44.74l34.52-6.09S1883,1013.09,1798.68,1059.71Z" transform="translate(-959.27 -216.45)"/><path class="cls-13" d="M1817.37,1002.79s2.36,5.62-2.59,9.4-8.14,9.9-7,14.37,12,11.76,15.73,10.59,11.4-7.07,10.58-9.43,5.15-20.69-4-27.75S1817.37,1002.79,1817.37,1002.79Z" transform="translate(-959.27 -216.45)"/><path class="cls-5" d="M1856,819.51s-33.67,6.3-60.5,45.83S1751,934.27,1756,948.52s50,63.66,57.75,63.66,20.3-5.64,21-18.35c0,0-31.71-47.53-25.46-54.65,2.67-3,41.17-34.3,46.67-20.18C1865,942.36,1856,819.51,1856,819.51Z" transform="translate(-959.27 -216.45)"/><path class="cls-14" d="M1885.94,778.74c-6.38,12.22-30.16,22.78-40.08,26.66.11-.63.22-1.26.33-1.87,1.6-9.06,3-16.85,3-16.85l29.06-14.49C1884.67,772.09,1888.58,773.72,1885.94,778.74Z" transform="translate(-959.27 -216.45)"/><path class="cls-13" d="M1839.81,787.34s43,13.42,51-13.5,18.85-43.32-8.28-53-35.53-1-40.37,7.33S1828.82,783.15,1839.81,787.34Z" transform="translate(-959.27 -216.45)"/><path class="cls-11" d="M1843.82,725.54s2.75,31.33,9.22,30,12.36-2.37,11.41,7.07-9.93,20.35,10,22,48.67-49.82,43.18-59.57C1901.84,696.9,1821,691.22,1843.82,725.54Z" transform="translate(-959.27 -216.45)"/><polygon class="cls-13" points="109.92 1237.1 123.02 1292.27 142.64 1292.16 143.36 1237.1 109.92 1237.1"/><polygon class="cls-13" points="274.96 1239.45 312.23 1292.27 326.75 1273.62 304.32 1232.19 274.96 1239.45"/><path class="cls-11" d="M1137.34,728.61c-6.78-3.85-14.89-4.27-20.57-3.93a9.61,9.61,0,0,1,4.34-2.06c-3.52-.53-11.38,3-11.38,3-49-18.86-56.67,53.24-55.64,70s-16.46,22.22-41.93,35.42c-48.62,25.19-52.89,58.91-52.89,58.91.38.22.78.48,1.2.76,2.41-4.08,7.38-11.76,11.56-12.91-.16.37-4.95,10.56-6.73,16.4,14.34,10.91,41.17,35.08,59.86,52.22-.08-3.35,0-8.1,1.28-10.61l2.31,13.91c10,9.19,16.9,15.67,16.9,15.67-1.23-13.54,61.23-85,93.82-106.37,7.93-11.68,10.75-32.31,11-33.94-1.37,16.36-4.17,25.54-6.67,30.7C1171.35,830.34,1155.29,738.81,1137.34,728.61Z" transform="translate(-959.27 -216.45)"/><path class="cls-13" d="M1137.54,860c.16.07-15.74,8.33-27.7,5.06-11.24-3.07-18.59-17.65-18.44-17.69,4.77-.94,6.14-7.49,6-35.62l2.15.43,36.21,7.17s-.82,11.39-.85,22.13C1134.93,850.52,1135.47,859.07,1137.54,860Z" transform="translate(-959.27 -216.45)"/><path class="cls-15" d="M1096.59,740.42s17.86-19,40.29-1C1136.88,739.44,1123.83,737.19,1096.59,740.42Z" transform="translate(-959.27 -216.45)"/><path class="cls-16" d="M1135.8,819.38s-.82,11.39-.85,22.13c-20.26-.57-31-19.06-35.36-29.3Z" transform="translate(-959.27 -216.45)"/><path class="cls-11" d="M1095.85,808.27s-10.62-16.78-13.16-31.13c-1.82-10.24,3.39-48.2,41.54-42.73a51.87,51.87,0,0,1,21.5,8.12c8.28,5.6,20.23,17.67,6.87,50.8l-3.47,11.19Z" transform="translate(-959.27 -216.45)"/><path class="cls-5" d="M1280.11,1475.59l-19.19.58-20.78.64s-48-53.43-74.9-139.07q-.95-3-2-6c-14.73-43-45.27-96.86-61.36-145.66-2.56-7.78-4.86-15.09-6.93-22q-1-3.33-1.91-6.54c-11.86-41.21-15.3-68.26-18.46-97.17l116.21.93S1209.56,1258.62,1280.11,1475.59Z" transform="translate(-959.27 -216.45)"/><path class="cls-17" d="M1174.53,994.45c-.29,55.3,8.11,79,8.11,79s-49.76,25.28-108.89,6.67c-.7-.22-49-11.24-49-11.24,1-2.23,9.79-39.5,10.76-41.56,12.48-26.81,22-38.56,23.45-46.81,2.74-15.38,2.8-31.31,1.43-46.32a371,371,0,0,0-14.34-72.76c16.12-3.67,31.62-9.94,48.39-16.23,3.86,4.81,15.24,9.66,25.47,9.43,11.78-.26,15.45-5.24,15-10.85,12.55,7,22.53,13.63,22.53,13.63,10.67,18.53,32.31,36.53,33.88,64.95C1191.75,929.38,1174.54,992.91,1174.53,994.45Z" transform="translate(-959.27 -216.45)"/><path class="cls-10" d="M1074.59,1000.62c-5.08,7.19-14.82,50.89-39,56.38,12.48-31.14,22-44.8,23.45-54.37,2.74-17.88,2.8-36.38,1.43-53.82,8.11-14.22,14.17-24,14.17-24,.64-2.3,12.89-40.19,16.81-6.32S1080.26,992.58,1074.59,1000.62Z" transform="translate(-959.27 -216.45)"/><path class="cls-13" d="M1142.57,829.54s-47.94.79-48-29.07-6.24-49.87,24.37-51.63,36.56,9.62,39,19.58S1155,828.57,1142.57,829.54Z" transform="translate(-959.27 -216.45)"/><path class="cls-11" d="M1156.53,751.82c-7.4-9-13-7-16.13-4.33-10.36-15.48-43.1,6.91-43.1,6.91a57,57,0,0,1-18.66,33.7s8.74,5.4,28.88.22c15.86-4.08,27.36-26.64,31.54-36.07,2.85,2.53,8.87,8.39,10.67,14.12,2.39,7.61,3.46,23.26,8,22.73C1157.76,789.1,1167.65,765.29,1156.53,751.82Z" transform="translate(-959.27 -216.45)"/><path class="cls-13" d="M1081.64,1505.63a53.16,53.16,0,0,1-2.5,22.62s-3.21,14.63,11.2,14.9,17.94-1.09,16.31-10.06-4.74-24.49-4.74-24.49Z" transform="translate(-959.27 -216.45)"/><path class="cls-18" d="M1108,1550.33l0,0h-29.81l-.05,0c-1.63-7.65,1-22.07,1-22.07,16.31,15.6,26.53-.39,26.53-.39C1108.32,1534.54,1108,1550.33,1108,1550.33Z" transform="translate(-959.27 -216.45)"/><path class="cls-13" d="M1320.75,1535.24s-26.57-30.17-34.72-45.18l-19.76,10.12,44.16,41.48,10.33-1.36Z" transform="translate(-959.27 -216.45)"/><path class="cls-18" d="M1337.05,1550.28h-36.87c-3.24-2.92-6.34-8.82-10.13-16.55-2.17-4.42-7-6.86-12-8.2v24.75h-7.63l-7.06-26.32c-4.7-8.82-1.17-16.9,2.14-23.87,3.85,0,15,2.77,34.64,25.32,6.45,7.41,13.56,10,20.64,9.83a2.09,2.09,0,0,0,.29.16C1332.22,1540.52,1335.86,1546.82,1337.05,1550.28Z" transform="translate(-959.27 -216.45)"/><path class="cls-15" d="M1335.26,879.1s-31.47,17.59-42.71,22.67c-4,1.8-11.24,5.17-18.64,8.62-4.47,2.09-9,4.21-12.9,6.06a16.23,16.23,0,0,1-19.22-4.15c-17-19.9-61.13-63-106.67-68.42l-.16-.07,0,.05h-.06l.26.49c2.56,6.37,27.52,68.74,28.29,81.9.82,13.86,3.27,226.75,3.27,226.75s-1.63,9.79,17.13,5.71,23.65-8.15,23.65-8.15-17.94-131.33-13-177c1-9,.09-19-1.91-29.44,27.73,16.8,60.43,24.27,60.43,24.27s12.2-5.32,31.15-17.06c8-4.94,17.18-12.81,26.26-21.14,11-10.06,29.86-34.35,29.86-34.35Z" transform="translate(-959.27 -216.45)"/><path class="cls-10" d="M1260.92,1476.17l-20.78.64s-48-53.43-74.9-139.07q-.95-3-2-6c-14.73-43-45.27-96.86-61.36-145.66-2.56-7.78-4.86-15.09-6.93-22q-1-3.33-1.91-6.54l17.11-13s51.38,83.2,67.28,161.5C1191.26,1374,1246.6,1455.82,1260.92,1476.17Z" transform="translate(-959.27 -216.45)"/><path class="cls-5" d="M1112,1313.27c.29,38.07-1.64,125.61-6.59,161.85H1087c-10.17,0-15.24-.15-15.24-.15-12.44-63-21.29-115.14-27.73-160.07-5.29-36.87-10-68.47-13.6-95.68-3.64-27.39-6.17-50.32-7.07-69.69-.14-3-.25-6-.3-8.9s-.08-5.71,0-8.44l100.41-9.79C1122.1,1189.12,1111.78,1291.14,1112,1313.27Z" transform="translate(-959.27 -216.45)"/><path class="cls-10" d="M1087,1475.12c-10.17,0-15.24-.15-15.24-.15-12.44-63-21.29-115.14-27.73-160.07-5.29-36.87-10-68.47-13.6-95.68-3.64-27.39-6.17-50.32-7.07-69.69l36.84,21.67s-23.51,8.3-14.54,71.11S1074.47,1466.23,1087,1475.12Z" transform="translate(-959.27 -216.45)"/><path class="cls-15" d="M1091.7,1148.91s-7.08,25.56-31.55,22.3-59.26-18-59.26-18,10.45-33,23.46-76.45c15.74-52.55,35.22-120.3,44.41-163a262.87,262.87,0,0,0,5-29.13l20.72-39.41s29.85,68,31.48,85.09S1091.7,1148.91,1091.7,1148.91Z" transform="translate(-959.27 -216.45)"/><path class="cls-13" d="M1179.09,949.44c-11.78,1.54-16.29,7.8-17.75,16.25a35.81,35.81,0,0,1-5.13,12.24c-11.73.63-39.67,2.15-63.14,3.63l-1.94,30.79a351,351,0,0,0,70.25-16.63c2.1-.36,4.72-1.66,8-4.34,16.9-13.84,26.49-37,26.52-40.34S1190.86,947.89,1179.09,949.44Z" transform="translate(-959.27 -216.45)"/><path class="cls-18" d="M1090.61,966.21c-1.09,27.73-7.62,81.56-65.8,110.38l-.46.22c15.74-52.55,35.22-120.3,44.41-163C1079.44,929.74,1091.21,950.94,1090.61,966.21Z" transform="translate(-959.27 -216.45)"/><path class="cls-15" d="M1094.47,845.23s-49.76,3.53-61.73,30.18-15.77,115.28-.54,141.38c0,0,21,6,58-1l1.37-.26s11.82-29,1.22-34.67c0,0-31.27,1.63-28-8.7S1094.47,845.23,1094.47,845.23Z" transform="translate(-959.27 -216.45)"/><path class="cls-13" d="M1369,858.19c-26.78-3.44-33.54,20.91-33.54,20.91l5,16.73c8.26,1.14,15.48-1,22.13-10.54s8.49-5.86,12.72-12.95C1381.05,862.73,1372.07,859.15,1369,858.19Z" transform="translate(-959.27 -216.45)"/><path class="cls-13" d="M1292.55,901.77c-4,1.8-11.24,5.17-18.64,8.62,4,7,8.91,19.81,10.23,40.93a170.67,170.67,0,0,0,27-21.79c14.11-13.85,29.07-33.7,29.07-33.7l-5-16.73S1303.79,896.69,1292.55,901.77Z" transform="translate(-959.27 -216.45)"/><path class="cls-13" d="M2712.94,1095.77s-19,4.89-31.14,1.25-32.94,2.34-36.29,6.75-2.13,6.17,3.86,7.69,27.19,10.57,41.13,5.34,32.12-5.43,32.12-5.43Z" transform="translate(-959.27 -216.45)"/><path class="cls-12" d="M2877.49,930.38s-21.39,152-56.8,165.63c-17.48,6.72-94.71,22-117.56,23.48,0,0-5.6-4.54-4.23-23,0,0,80.92-29.71,92.41-45.86,17.11-24-10.62-98.23,10.85-120.81S2859.78,897.51,2877.49,930.38Z" transform="translate(-959.27 -216.45)"/><path class="cls-8" d="M2874.76,1516.12V1483h52.18a2.56,2.56,0,0,0,2.56-2.56v-5.31a2.56,2.56,0,0,0-2.56-2.56h-52.18V1283.87a9.65,9.65,0,0,0-9.63-9.63h-10.32a9.65,9.65,0,0,0-9.63,9.63v188.67H2793a2.56,2.56,0,0,0-2.56,2.56v5.31A2.56,2.56,0,0,0,2793,1483h52.18v33.15c-37.75,2.85-68,16.44-76.49,34h182.56C2942.76,1532.56,2912.51,1519,2874.76,1516.12Z" transform="translate(-959.27 -216.45)"/><path class="cls-11" d="M2870.28,1250.65a266.48,266.48,0,0,1-20.89,29.89c-23,29-48,53-52.37,75.57a102.89,102.89,0,0,1-4,14.48c-1.82,5.18-4.07,10.63-6.67,16.26-9.76,21.19-24.34,44.93-38.91,66.51-25.18,37.31-48.86,68.45-48.86,68.45l-43.42-1.85c1.74-4.36,20.68-55.87,46-118.83,10.29-25.55,21.23-52.74,31.79-79,1.4-3.5,2.81-7,4.2-10.45,3.23-8,6.4-15.92,9.5-23.61l42.74-106.18s95.07-36,104.95-12.68C2902.45,1188.5,2895.82,1207.35,2870.28,1250.65Z" transform="translate(-959.27 -216.45)"/><path class="cls-11" d="M2697.19,1513.91s-2.22,35.83-9.16,36.35c-.92.06-35.16.06-35.16.06l-43.7-.25s.29-10.53,13.06-12.76,34.16-11.2,41.9-28.09C2672.27,1491.46,2697.19,1513.91,2697.19,1513.91Z" transform="translate(-959.27 -216.45)"/><path class="cls-11" d="M2797.73,1411.55s30.2,19.41,27.27,25.71c-.39.84-17.08,30.73-17.08,30.73l-21.52,38s-9.06-5.38-4.78-17.62,6.87-35.29-4.1-50.28C2766,1422.36,2797.73,1411.55,2797.73,1411.55Z" transform="translate(-959.27 -216.45)"/><path class="cls-12" d="M2756.87,1164.84s-119.34,74.34-132.66,124.3S2783,1445.66,2783,1445.66s18.87-16.65,22.2-28.86c0,0-77.78-93.18-94.65-114.07-10.36-12.83,153.21-44.41,173.19-75.49s12.83-57.24,12.83-57.24Z" transform="translate(-959.27 -216.45)"/><rect class="cls-5" x="1769.69" y="1043.85" width="262.01" height="66.61" rx="8.88"/><path class="cls-13" d="M2812.05,904.32a67.35,67.35,0,0,0-18.18,16.48c28.59,7.39,76-19.1,76-19.1s-18.41-12.37-25.22-39.54c-.35-1.37-.66-2.77-.94-4.21a86.26,86.26,0,0,1-1.55-14.88L2829,854.84l-21.84,19.56a188.47,188.47,0,0,0,3.23,22.08C2810.88,898.92,2811.43,901.54,2812.05,904.32Z" transform="translate(-959.27 -216.45)"/><path class="cls-8" d="M2900,1039.2c-4.1,55.08,2.79,138.81-1.86,153.32-4,12.52-51.19,5.11-69.42.93-6.75-1.55-14.93-3.76-23.37-6.37-23.55-7.29-49.21-17.7-52-25.44a7.81,7.81,0,0,1-.25-.88,7.08,7.08,0,0,1,0-3.24c.92-3.94,4.45-8.21,4.87-18,.47-10.9.39-23.72.81-37.52,0-1.55,0-3.25.21-4.79v-.57c0-.29,0-.58,0-.88.4-15.38,1.2-31.56,2.14-47.59.59-10.08,1.27-20,2.06-29.61,2.06-24.68,4.83-46.62,8.49-60.49,6-22.61,19.19-37.36,31.2-48.17l8.7-7.45c9.69,2.12,21.16.71,31.53-4.2,11.22-5.33,15.1-9.15,17.06-7.71C2886.19,910.58,2904.83,971.86,2900,1039.2Z" transform="translate(-959.27 -216.45)"/><path class="cls-12" d="M2805.48,1187.19c-23.55-7.29-49.21-17.7-52-25.43a6.76,6.76,0,0,1-.26-.89c0-1.08,0-2.16,0-3.24.92-3.94,4.46-8.21,4.87-18,.47-10.9.4-23.72.81-37.52,0-1.55,0-3.25.21-4.79v-.57c0-.29,0-.58,0-.88l89-40.34S2853.31,1127.26,2805.48,1187.19Z" transform="translate(-959.27 -216.45)"/><path class="cls-16" d="M2807.18,874.4a188.47,188.47,0,0,0,3.23,22.08c21.32-6.88,31-26.15,34.23-34.32.92-2.31,1.31-3.73,1.31-3.73l-2.25-.48L2829,854.84Z" transform="translate(-959.27 -216.45)"/><path class="cls-13" d="M2798.55,874.19s46.85,5.28,49.69-23.94,10.8-48.23-19-52.84-36.7,6-40,15.5S2786.43,872.06,2798.55,874.19Z" transform="translate(-959.27 -216.45)"/><path class="cls-8" d="M2848,852.26s-3-38.79-45.62-42.81c-29.21-2.75-12.93-27.9-9.81-31.91,0,0,22.38,3.07,45.32,6.86C2886.08,792.36,2852.77,846.22,2848,852.26Z" transform="translate(-959.27 -216.45)"/><rect class="cls-19" x="2599.6" y="1024.39" width="4.31" height="112.91" transform="translate(-1165.92 640.22) rotate(-18)"/><rect class="cls-19" x="2617.07" y="1126.85" width="118.49" height="7.09" transform="translate(-982.8 -159.04) rotate(-1.22)"/><path class="cls-13" d="M2722.74,1119.14s-18.39,7-30.82,4.67-32.48,6-35.32,10.72-1.43,6.36,4.68,7.22,28.2,7.5,41.47.76,31.33-8.93,31.33-8.93Z" transform="translate(-959.27 -216.45)"/><path class="cls-8" d="M2868.05,936.62s-4.5,153.45-38.2,170.88c-16.62,8.61-91.71,32.26-114.24,36.3,0,0-6.07-3.9-6.75-22.41,0,0,77.15-38.45,86.79-55.78,14.35-25.78-21.38-96.45-2.54-121.26S2846.83,905.9,2868.05,936.62Z" transform="translate(-959.27 -216.45)"/><path class="cls-20" d="M3386.5,1555h-2402a2.35,2.35,0,0,1-2.35-2.34h0a2.36,2.36,0,0,1,2.35-2.35h2402a2.35,2.35,0,0,1,2.34,2.35h0A2.34,2.34,0,0,1,3386.5,1555Z" transform="translate(-959.27 -216.45)"/></svg>