<?xml version="1.0" encoding="utf-8"?>
<!-- Generator: Adobe Illustrator 25.2.0, SVG Export Plug-In . SVG Version: 6.00 Build 0)  -->
<svg version="1.0" xmlns="http://www.w3.org/2000/svg" xmlns:xlink="http://www.w3.org/1999/xlink" x="0px" y="0px"
	 viewBox="0 0 2500 1339" style="enable-background:new 0 0 2500 1339;" xml:space="preserve">
<style type="text/css">
	.st0{display:none;}
	.st1{display:inline;}
	.st2{fill:url(#SVGID_1_);}
	.st3{display:inline;fill:#D2E9FF;}
	.st4{fill:#9DD3FF;}
	.st5{fill:#5E9AF2;}
	.st6{fill:#F0F8FF;}
	.st7{fill:#FF7469;}
	.st8{fill:#97C7FA;}
	.st9{fill:#FF7A70;}
	.st10{fill:#2E49D2;}
	.st11{fill:#5F89D3;}
	.st12{fill:#FF5549;}
	.st13{fill:#003261;}
	.st14{fill:#00448C;}
	.st15{fill:#FF9490;}
	.st16{fill:#FFA668;}
	.st17{fill:#FF8585;}
	.st18{fill:#E3F0FD;}
	.st19{fill:#E05344;}
	.st20{fill:#2776CE;}
	.st21{display:inline;fill:#0F2B4E;}
	.st22{opacity:0.5;fill:#D8E9FF;}
	.st23{fill:#DCEAFB;}
	.st24{fill:#A8CCFF;}
	.st25{fill:#C9E0FF;}
	.st26{fill:#97C0F8;}
	.st27{fill:#FF9223;}
	.st28{fill:#FFC180;}
	.st29{fill:#6CA3EA;}
	.st30{fill:#F3FAFF;}
	.st31{fill:#B8D0FC;}
	.st32{fill:#FFFFFF;}
	.st33{fill:#FF912B;}
	.st34{fill:#FFAE73;}
	.st35{fill:#1E3865;}
	.st36{fill:#B53C37;}
	.st37{fill:#F9924F;}
	.st38{fill:#214D9A;}
	.st39{fill:#4B9BA9;}
	.st40{fill:#153D74;}
	.st41{fill:#FC7600;}
	.st42{opacity:0.6;}
	.st43{fill:#0B3563;}
	.st44{fill:#DCEAFF;}
	.st45{fill:#FDDBBA;}
	.st46{fill:#F8CAA4;}
	.st47{fill:#163054;}
	.st48{fill:#153C6B;}
	.st49{fill:#25468F;}
	.st50{fill:#2D3554;}
	.st51{fill:#1D262D;}
</style>
<g id="BACKGROUND" class="st0">
	<g class="st1">
		<g>
			<g>
				<linearGradient id="SVGID_1_" gradientUnits="userSpaceOnUse" x1="937.5" y1="982" x2="1562.5" y2="357">
					<stop  offset="0" style="stop-color:#C0F9FF"/>
					<stop  offset="0.2012" style="stop-color:#BBF6FE"/>
					<stop  offset="0.4334" style="stop-color:#ADEDFA"/>
					<stop  offset="0.681" style="stop-color:#96DEF3"/>
					<stop  offset="0.9376" style="stop-color:#76C9EA"/>
					<stop  offset="1" style="stop-color:#6DC3E8"/>
				</linearGradient>
				<rect x="875" y="419.5" class="st2" width="750" height="500"/>
			</g>
		</g>
	</g>
</g>
<g id="OBJECTS">
	<g>
		<g class="st0">
			<path class="st3" d="M2668.03,429.39C2551.99,332.37,2412.08-252.74,1932.82,52C1685.21,209.45,1267.68-83.17,922.09,17.9
				c-317.38,92.82-347.98,398.63-317.27,498.28c62.03,201.29-131.01,231.24-310.09,317.73c-280.9,135.66-74.34,612.42,191.03,614.7
				c265.37,2.28,1873.04-4.54,1873.04-4.54s385.51,0.95,545.82-207.58C3077.14,1012.07,2967.78,679.99,2668.03,429.39z"/>
			<g class="st1">
				<g>
					
						<rect x="2179.01" y="69.4" transform="matrix(-1 -1.224647e-16 1.224647e-16 -1 5018.6948 1226.7803)" class="st4" width="660.68" height="1087.97"/>
					<rect x="2158.3" y="69.4" class="st5" width="660.68" height="1087.97"/>
					<rect x="2203.29" y="130.18" class="st6" width="572.26" height="378.96"/>
					<rect x="2458.56" y="864.76" class="st6" width="307.13" height="202.33"/>
					<path class="st7" d="M2226.89,323.6c0,0,97.71-11.93,157.41,41.98c59.71,53.91,170.93,4.78,215.72,0
						c77.86-8.31,138.91,16.66,157.01,44.11v82.33h-530.14V323.6z"/>
					<rect x="2302.62" y="191.09" class="st8" width="4.09" height="128.57"/>
					<rect x="2463.3" y="246.26" class="st8" width="4.09" height="128.57"/>
					<path class="st8" d="M2352.43,210.82h-31.39c-1.88,0-3.41-1.5-3.41-3.34l0,0c0-1.84,1.53-3.34,3.41-3.34h31.39
						c1.88,0,3.41,1.5,3.41,3.34l0,0C2355.84,209.32,2354.3,210.82,2352.43,210.82z"/>
					<path class="st8" d="M2352.43,222.86h-31.39c-1.88,0-3.41-1.5-3.41-3.34l0,0c0-1.84,1.53-3.34,3.41-3.34h31.39
						c1.88,0,3.41,1.5,3.41,3.34l0,0C2355.84,221.35,2354.3,222.86,2352.43,222.86z"/>
					<path class="st8" d="M2510.72,276.36h-31.39c-1.88,0-3.41-1.5-3.41-3.34l0,0c0-1.84,1.54-3.34,3.41-3.34h31.39
						c1.88,0,3.41,1.5,3.41,3.34l0,0C2514.13,274.85,2512.6,276.36,2510.72,276.36z"/>
					<path class="st8" d="M2510.72,288.15h-31.39c-1.88,0-3.41-1.5-3.41-3.34l0,0c0-1.84,1.54-3.34,3.41-3.34h31.39
						c1.88,0,3.41,1.5,3.41,3.34l0,0C2514.13,286.64,2512.6,288.15,2510.72,288.15z"/>
					<g>
						<polygon class="st8" points="2752.45,1052.95 2470.54,1052.95 2470.54,889.69 2474.04,889.69 2474.04,1049.52 
							2752.45,1049.52 						"/>
					</g>
					<g>
						<path class="st8" d="M2558.67,993.91c-34.51-26.92-71.21,0-71.21,0v46.03h258V920.96
							C2675.34,922.7,2593.17,1020.84,2558.67,993.91z"/>
						<path class="st8" d="M2490.41,902.14h120.22c1.62,0,2.95-1.3,2.95-2.9c0-1.59-1.33-2.89-2.95-2.89h-120.22
							c-1.62,0-2.95,1.3-2.95,2.89C2487.46,900.84,2488.78,902.14,2490.41,902.14z"/>
						<path class="st8" d="M2490.41,916.29h120.22c1.62,0,2.95-1.3,2.95-2.9c0-1.59-1.33-2.89-2.95-2.89h-120.22
							c-1.62,0-2.95,1.3-2.95,2.89C2487.46,914.99,2488.78,916.29,2490.41,916.29z"/>
						<path class="st8" d="M2489.87,929.65h79.6c1.33,0,2.42-1.07,2.42-2.37v-1.05c0-1.3-1.09-2.37-2.42-2.37h-79.6
							c-1.33,0-2.42,1.07-2.42,2.37v1.05C2487.46,928.58,2488.54,929.65,2489.87,929.65z"/>
					</g>
				</g>
				<g>
					<rect x="1145" y="-99.71" class="st5" width="903.98" height="1336.19"/>
					<rect x="1232.35" y="-24.97" class="st6" width="727.81" height="795.1"/>
					<path class="st6" d="M1247.82,1024.16c0-70.85,58.6-128.29,130.89-128.29c72.29,0,130.89,57.44,130.89,128.29
						c0,70.85-58.6,128.29-130.89,128.29C1306.42,1152.45,1247.82,1095.01,1247.82,1024.16z"/>
					<path class="st7" d="M1489.35,1024.16c0-59.89-49.53-108.45-110.64-108.45c-61.12,0-110.65,48.56-110.65,108.45
						c0,59.89,49.53,108.45,110.65,108.45c25.24,0,48.5-8.28,67.1-22.22l-67.1-86.22l103.39,38.68
						C1486.78,1050.82,1489.35,1037.79,1489.35,1024.16z"/>
					<path class="st6" d="M1693.79,1024.16c0-70.85,58.6-128.29,130.89-128.29c72.29,0,130.89,57.44,130.89,128.29
						c0,70.85-58.6,128.29-130.89,128.29C1752.39,1152.45,1693.79,1095.01,1693.79,1024.16z"/>
					<path class="st7" d="M1824.68,915.71c-61.12,0-110.65,48.56-110.65,108.45c0,29.64,12.12,56.49,31.79,76.07l78.86-76.07
						l103.39,38.68c4.68-12.01,7.24-25.05,7.24-38.68C1935.32,964.27,1885.79,915.71,1824.68,915.71z"/>
					<g>
						<path class="st8" d="M1808.51,969.11h-47.1c-1.85,0-3.36,1.48-3.36,3.3l0,0c0,1.81,1.51,3.3,3.36,3.3h47.1
							c1.85,0,3.36-1.48,3.36-3.3l0,0C1811.88,970.59,1810.36,969.11,1808.51,969.11z"/>
						<path class="st8" d="M1808.51,979.55h-47.1c-1.85,0-3.36,1.48-3.36,3.3c0,1.81,1.51,3.3,3.36,3.3h47.1
							c1.85,0,3.36-1.48,3.36-3.3C1811.88,981.03,1810.36,979.55,1808.51,979.55z"/>
						<path class="st8" d="M1780.87,989.99h-19.45c-1.85,0-3.36,1.48-3.36,3.3c0,1.81,1.51,3.3,3.36,3.3h19.45
							c1.85,0,3.36-1.48,3.36-3.3C1784.23,991.47,1782.72,989.99,1780.87,989.99z"/>
					</g>
					<g>
						<path class="st8" d="M1361.64,969.11h-47.1c-1.85,0-3.36,1.48-3.36,3.3l0,0c0,1.81,1.51,3.3,3.36,3.3h47.1
							c1.85,0,3.36-1.48,3.36-3.3l0,0C1365,970.59,1363.49,969.11,1361.64,969.11z"/>
						<path class="st8" d="M1361.64,979.55h-47.1c-1.85,0-3.36,1.48-3.36,3.3c0,1.81,1.51,3.3,3.36,3.3h47.1
							c1.85,0,3.36-1.48,3.36-3.3C1365,981.03,1363.49,979.55,1361.64,979.55z"/>
						<path class="st8" d="M1333.99,989.99h-19.45c-1.85,0-3.36,1.48-3.36,3.3c0,1.81,1.51,3.3,3.36,3.3h19.45
							c1.85,0,3.36-1.48,3.36-3.3C1337.35,991.47,1335.84,989.99,1333.99,989.99z"/>
					</g>
					<g>
						<rect x="1297.16" y="259.19" class="st8" width="76.8" height="468.91"/>
						<rect x="1422.98" y="128.48" class="st8" width="76.8" height="599.61"/>
						<rect x="1560.27" y="372.58" class="st8" width="76.8" height="355.51"/>
						<rect x="1693.86" y="208.53" class="st8" width="76.8" height="519.56"/>
						<rect x="1828.15" y="442.17" class="st8" width="76.8" height="285.93"/>
					</g>
					<g>
						<path class="st8" d="M1767.02,140.94h-65.04c-3.7,0-6.73,2.97-6.73,6.59c0,3.63,3.03,6.59,6.73,6.59h65.04
							c3.7,0,6.73-2.97,6.73-6.59C1773.75,143.9,1770.72,140.94,1767.02,140.94z"/>
						<path class="st8" d="M1716.79,164.93h-14.81c-3.7,0-6.73,2.97-6.73,6.59c0,3.63,3.03,6.59,6.73,6.59h14.81
							c3.7,0,6.73-2.97,6.73-6.59C1723.52,167.9,1720.5,164.93,1716.79,164.93z"/>
						<path class="st8" d="M1499.01,38.81h-65.04c-3.7,0-6.73,2.97-6.73,6.59c0,3.63,3.03,6.59,6.73,6.59h65.04
							c3.7,0,6.73-2.97,6.73-6.59C1505.74,41.78,1502.71,38.81,1499.01,38.81z"/>
						<path class="st8" d="M1448.78,62.81h-14.81c-3.7,0-6.73,2.97-6.73,6.59l0,0c0,3.63,3.03,6.59,6.73,6.59h14.81
							c3.7,0,6.73-2.97,6.73-6.59l0,0C1455.51,65.78,1452.48,62.81,1448.78,62.81z"/>
						<path class="st8" d="M1631.19,302.6h-65.04c-3.7,0-6.73,2.97-6.73,6.59c0,3.63,3.03,6.59,6.73,6.59h65.04
							c3.7,0,6.73-2.97,6.73-6.59C1637.92,305.56,1634.89,302.6,1631.19,302.6z"/>
						<path class="st8" d="M1580.96,326.59h-14.81c-3.7,0-6.73,2.97-6.73,6.59l0,0c0,3.63,3.03,6.59,6.73,6.59h14.81
							c3.7,0,6.73-2.97,6.73-6.59l0,0C1587.69,329.56,1584.67,326.59,1580.96,326.59z"/>
						<path class="st8" d="M1899.07,372.58h-65.04c-3.7,0-6.73,2.97-6.73,6.6c0,3.63,3.03,6.59,6.73,6.59h65.04
							c3.7,0,6.73-2.97,6.73-6.59C1905.8,375.55,1902.77,372.58,1899.07,372.58z"/>
						<path class="st8" d="M1848.85,396.58h-14.81c-3.7,0-6.73,2.97-6.73,6.6c0,3.63,3.03,6.59,6.73,6.59h14.81
							c3.7,0,6.73-2.97,6.73-6.59C1855.57,399.55,1852.55,396.58,1848.85,396.58z"/>
					</g>
				</g>
				<g>
					<rect x="362.34" y="406.78" class="st4" width="660.68" height="364.55"/>
					<rect x="383.82" y="406.78" class="st5" width="660.68" height="364.55"/>
					<ellipse class="st6" cx="564.51" cy="580.82" rx="119.46" ry="117.08"/>
					<g>
						<path class="st6" d="M970.23,515.42h-197.9c-7.17,0-13.04,5.75-13.04,12.78l0,0c0,7.03,5.87,12.78,13.04,12.78h197.9
							c7.17,0,13.04-5.75,13.04-12.78l0,0C983.27,521.17,977.4,515.42,970.23,515.42z"/>
						<path class="st6" d="M970.23,568.04h-197.9c-7.17,0-13.04,5.75-13.04,12.78l0,0c0,7.03,5.87,12.78,13.04,12.78h197.9
							c7.17,0,13.04-5.75,13.04-12.78l0,0C983.27,573.79,977.4,568.04,970.23,568.04z"/>
						<path class="st6" d="M970.23,620.67h-197.9c-7.17,0-13.04,5.75-13.04,12.78c0,7.03,5.87,12.78,13.04,12.78h197.9
							c7.17,0,13.04-5.75,13.04-12.78C983.27,626.42,977.4,620.67,970.23,620.67z"/>
					</g>
					<path class="st10" d="M455.14,579.12h109.38v-107.2C504.11,471.92,455.14,519.92,455.14,579.12z"/>
					<path class="st10" d="M673.88,582.57H564.51h0H455.14c0,59.2,48.97,107.2,109.37,107.2l0,0l0,0c0,0,0,0,0,0h0
						C624.91,689.77,673.88,641.77,673.88,582.57z"/>
					<g>
						<path class="st11" d="M545.62,524.01h-59.36c-3.38,0-6.14,2.71-6.14,6.02c0,3.31,2.76,6.02,6.14,6.02h59.36
							c3.38,0,6.14-2.71,6.14-6.02C551.76,526.72,549,524.01,545.62,524.01z"/>
						<path class="st11" d="M499.78,545.91h-13.52c-3.38,0-6.14,2.71-6.14,6.02c0,3.31,2.76,6.02,6.14,6.02h13.52
							c3.38,0,6.14-2.71,6.14-6.02C505.92,548.62,503.16,545.91,499.78,545.91z"/>
					</g>
					<g>
						<path class="st8" d="M633.75,608.78h-59.36c-3.38,0-6.14,2.71-6.14,6.02c0,3.31,2.76,6.02,6.14,6.02h59.36
							c3.38,0,6.14-2.71,6.14-6.02C639.89,611.49,637.12,608.78,633.75,608.78z"/>
						<path class="st8" d="M587.91,630.68h-13.52c-3.38,0-6.14,2.71-6.14,6.02l0,0c0,3.31,2.76,6.02,6.14,6.02h13.52
							c3.38,0,6.14-2.71,6.14-6.02l0,0C594.05,633.39,591.28,630.68,587.91,630.68z"/>
					</g>
				</g>
				<g>
					<path class="st4" d="M315.8,836.61v372.82h660.68V836.61H315.8z"/>
					<path class="st5" d="M337.29,836.61v372.82h660.68V836.61H337.29z"/>
					<ellipse class="st6" cx="517.97" cy="1011.51" rx="119.46" ry="117.08"/>
					<g>
						<path class="st6" d="M725.79,971.67h197.9c7.17,0,13.04-5.75,13.04-12.78c0-7.03-5.87-12.78-13.04-12.78h-197.9
							c-7.17,0-13.04,5.75-13.04,12.78C712.75,965.92,718.62,971.67,725.79,971.67z"/>
						<path class="st6" d="M923.69,998.73h-197.9c-7.17,0-13.04,5.75-13.04,12.78c0,7.03,5.87,12.78,13.04,12.78h197.9
							c7.17,0,13.04-5.75,13.04-12.78C936.73,1004.48,930.86,998.73,923.69,998.73z"/>
						<path class="st6" d="M923.69,1051.36h-197.9c-7.17,0-13.04,5.75-13.04,12.78l0,0c0,7.03,5.87,12.78,13.04,12.78h197.9
							c7.17,0,13.04-5.75,13.04-12.78l0,0C936.73,1057.11,930.86,1051.36,923.69,1051.36z"/>
					</g>
					<path class="st10" d="M517.97,1013.41l-109.36-1.36c-0.01,0.45-0.01,0.91-0.01,1.36c0,59.2,48.97,107.2,109.37,107.2
						c21.59,0,41.73-6.14,58.68-16.73L517.97,1013.41z"/>
					<g>
						<path class="st8" d="M522,1047.17h-59.36c-3.38,0-6.14,2.71-6.14,6.02v0c0,3.31,2.76,6.02,6.14,6.02H522
							c3.38,0,6.14-2.71,6.14-6.02v0C528.14,1049.87,525.38,1047.17,522,1047.17z"/>
						<path class="st8" d="M476.16,1069.07h-13.52c-3.38,0-6.14,2.71-6.14,6.02c0,3.31,2.76,6.02,6.14,6.02h13.52
							c3.38,0,6.14-2.71,6.14-6.02C482.3,1071.78,479.54,1069.07,476.16,1069.07z"/>
					</g>
				</g>
				<g>
					<rect x="315.8" y="9.21" class="st4" width="660.69" height="337.84"/>
					<rect x="337.29" y="9.21" class="st5" width="660.68" height="337.84"/>
					<ellipse class="st6" cx="517.97" cy="183.09" rx="119.46" ry="117.08"/>
					<path class="st10" d="M517.97,75.9c-60.4,0-109.37,47.99-109.37,107.19c0,40.55,22.99,75.85,56.88,94.06
						c17.52-31.81,52.49-94.06,52.49-94.06l51.79,94.43c34.28-18.1,57.58-53.59,57.58-94.43C627.34,123.89,578.38,75.9,517.97,75.9z
						"/>
					<g>
						<path class="st6" d="M923.69,117.68H725.8c-7.17,0-13.04,5.75-13.04,12.78v0c0,7.03,5.87,12.78,13.04,12.78h197.9
							c7.17,0,13.04-5.75,13.04-12.78v0C936.73,123.43,930.86,117.68,923.69,117.68z"/>
						<path class="st6" d="M923.69,170.31H725.8c-7.17,0-13.04,5.75-13.04,12.78c0,7.03,5.87,12.78,13.04,12.78h197.9
							c7.17,0,13.04-5.75,13.04-12.78C936.73,176.06,930.86,170.31,923.69,170.31z"/>
						<path class="st6" d="M923.69,222.93H725.8c-7.17,0-13.04,5.75-13.04,12.78s5.87,12.78,13.04,12.78h197.9
							c7.17,0,13.04-5.75,13.04-12.78S930.86,222.93,923.69,222.93z"/>
					</g>
					<g>
						<path class="st11" d="M522,131.89h-59.36c-3.38,0-6.14,2.71-6.14,6.02c0,3.31,2.76,6.02,6.14,6.02H522
							c3.38,0,6.14-2.71,6.14-6.02C528.14,134.6,525.38,131.89,522,131.89z"/>
						<path class="st11" d="M476.16,153.79h-13.52c-3.38,0-6.14,2.71-6.14,6.02l0,0c0,3.31,2.76,6.02,6.14,6.02h13.52
							c3.38,0,6.14-2.71,6.14-6.02l0,0C482.3,156.5,479.54,153.79,476.16,153.79z"/>
					</g>
				</g>
			</g>
			<g class="st1">
				<path class="st12" d="M1151.21,592.65c0,0,77.07,77.98,80.77,107.38c3.7,29.4-36.67,75.4-36.67,75.4L1151.21,592.65z"/>
				<path class="st13" d="M1061.13,957.03c0,0,13.49,84.58,63.83,234.72c50.33,150.14,57.19,215.16,57.19,215.16s13.61,1.94,28,1.94
					c9.1,0,26-3.42,26-3.42s0.46-164.09-22.74-239.59c-23.2-75.5-5.01-272.19-5.01-272.19L1061.13,957.03z"/>
				<path class="st14" d="M1034.85,898.28c0,0-1.91,127.46,20.59,283.95c22.5,156.49,14.87,222.92,14.87,222.92
					s18.52,3.25,25.03,3.46c6.96,0.23,28.86-1.71,28.86-1.71s32.2-156.55,22.97-234.88c-9.23-78.33,44.1-268.78,44.1-268.78
					L1034.85,898.28z"/>
				<path class="st15" d="M1139.17,600.02l-25.42,18.45l-36.73-7.58c0.51-3.28,2.93-16.89,5.14-29.21c0.13-0.73,0.27-1.45,0.39-2.16
					c1.89-10.49,3.53-19.5,3.53-19.5l34.31-16.76l12.79-6.25c-0.03,0.22-0.99,11.64-1.13,13.3
					C1129.65,579.91,1139.17,600.02,1139.17,600.02z"/>
				<path class="st12" d="M1079.59,590.71c0.81-0.33,49.97-14.55,55.31-12.82c5.34,1.73,8.5,11.86,8.5,11.86l-80.41,17.82
					C1062.99,607.56,1069.32,594.95,1079.59,590.71z"/>
				<path class="st7" d="M1211.98,914.02c-8.33,37.26-147.02,41.68-182.77,7.86c-4.07-3.85-4.27-21.79-2.73-45.97
					c3-47.25,12.63-118.32,13.01-154.63c0.18-17.54,2.64-35.47,5.92-51.76c6.97-34.71,17.59-61.95,17.59-61.95
					s67.74-21.46,80.42-17.81C1204.47,607.33,1220.31,876.76,1211.98,914.02z"/>
				<path class="st12" d="M1026.47,875.9c3-47.25,12.63-118.32,13.01-154.63c0.18-17.54,2.64-35.47,5.92-51.76l40.75-7.05
					C1086.15,662.46,1125.99,821.95,1026.47,875.9z"/>
				<path class="st15" d="M1048.54,810.04c0,0,2.78,6.51-3.06,10.88c-5.83,4.37-9.62,11.45-8.28,16.62
					c1.34,5.17,14.13,13.61,18.57,12.25c4.44-1.36,13.46-8.18,12.49-10.9c-0.97-2.73,6.07-23.94-4.74-32.11
					C1052.7,798.61,1048.54,810.04,1048.54,810.04z"/>
				<path class="st7" d="M1094.1,598c0,0-39.74,7.29-71.41,53.03c-31.67,45.74-52.5,79.74-46.67,96.23
					c5.83,16.48,59.01,73.66,68.17,73.66c9.17,0,23.96-6.53,24.79-21.23c0,0-37.44-54.99-30.06-63.23
					c3.15-3.52,48.6-39.68,55.09-23.35C1104.76,740.12,1094.1,598,1094.1,598z"/>
				<path class="st16" d="M1129.48,550.83c-7.53,14.13-35.61,26.35-47.32,30.84c0.13-0.73,0.27-1.45,0.39-2.16
					c1.89-10.49,3.53-19.5,3.53-19.5l34.31-16.76C1127.97,543.14,1132.59,545.02,1129.48,550.83z"/>
				<path class="st15" d="M1075.03,560.78c0,0,50.79,15.53,60.17-15.62c9.38-31.15,22.25-50.12-9.78-61.35
					c-32.03-11.23-41.94-1.18-47.65,8.47C1072.05,501.93,1062.06,555.94,1075.03,560.78z"/>
				<path class="st13" d="M1079.76,489.28c0,0,3.24,36.25,10.89,34.67c7.65-1.57,14.58-2.74,13.46,8.18
					c-1.12,10.93-11.72,23.54,11.84,25.48c23.57,1.93,57.45-57.64,50.98-68.92C1148.25,456.15,1052.76,449.58,1079.76,489.28z"/>
			</g>
			<g class="st1">
				<polygon class="st15" points="165.38,1331.54 180.85,1395.36 204.01,1395.23 204.85,1331.54 				"/>
				<polygon class="st15" points="360.19,1334.26 404.18,1395.36 421.33,1373.78 394.85,1325.86 				"/>
				<path class="st13" d="M245.82,492.83c-7.99-4.45-17.58-4.94-24.28-4.55c1.73-1.75,5.12-2.38,5.12-2.38
					c-4.16-0.61-13.43,3.43-13.43,3.43c-57.81-21.83-66.89,61.59-65.68,80.97c1.21,19.38-19.42,25.71-49.5,40.98
					c-57.38,29.14-62.42,68.15-62.42,68.15c0.45,0.26,0.91,0.55,1.41,0.89c2.85-4.73,8.71-13.61,13.65-14.94
					c-0.19,0.43-5.84,12.22-7.95,18.98c16.93,12.62,48.6,40.59,70.67,60.41c-0.1-3.87,0.06-9.38,1.5-12.28l2.73,16.09
					c11.81,10.64,19.96,18.13,19.96,18.13c-1.46-15.66,72.27-98.31,110.74-123.06c9.36-13.51,12.69-37.38,12.94-39.26
					c-1.62,18.93-4.92,29.54-7.87,35.52C285.97,610.52,267.01,504.63,245.82,492.83z"/>
				<path class="st15" d="M246.05,644.88c0.19,0.08-18.57,9.63-32.69,5.85c-13.28-3.55-21.95-20.42-21.77-20.46
					c5.62-1.09,7.24-8.67,7.12-41.21l2.54,0.49l42.74,8.3c0,0-0.97,13.18-1,25.6C242.97,633.87,243.62,643.76,246.05,644.88z"/>
				<path class="st9" d="M197.72,506.49c0,0,21.08-22,47.55-1.13C245.27,505.37,229.87,502.75,197.72,506.49z"/>
				<path class="st17" d="M244,597.84c0,0-0.97,13.18-1,25.6c-23.92-0.66-36.56-22.04-41.74-33.9L244,597.84z"/>
				<path class="st13" d="M196.85,584.99c0,0-12.53-19.41-15.54-36.01c-2.15-11.85,4.01-55.77,49.04-49.44c0,0,13.08,1.26,25.37,9.4
					c9.78,6.47,23.89,20.45,8.11,58.77l-4.1,12.95L196.85,584.99z"/>
				<path class="st7" d="M414.35,1357.03l-22.66,0.68l-24.52,0.74c0,0-56.64-61.81-88.42-160.9c-0.74-2.3-1.52-4.63-2.35-6.99
					c-17.39-49.69-53.44-112.07-72.43-168.53c-3.02-8.99-5.74-17.46-8.17-25.47c-0.78-2.57-1.54-5.09-2.26-7.57
					c-14-47.67-18.05-78.98-21.79-112.42l137.17,1.08C308.92,877.65,331.07,1106.02,414.35,1357.03z"/>
				<path class="st18" d="M289.72,800.4c-0.35,63.98,9.58,91.42,9.58,91.42s-58.73,29.25-128.54,7.72c-0.82-0.25-57.8-13-57.8-13
					c1.17-2.59,11.56-45.7,12.7-48.08c14.74-31.02,25.93-44.62,27.68-54.16c3.24-17.8,3.31-36.23,1.7-53.6
					c-4.26-45.99-16.93-84.17-16.93-84.17c19.02-4.24,37.32-11.5,57.12-18.77c4.55,5.56,17.98,11.17,30.06,10.91
					c13.9-0.3,18.25-6.06,17.74-12.56c14.82,8.08,26.6,15.77,26.6,15.77c12.59,21.44,38.13,42.26,39.98,75.15
					C310.05,725.11,289.73,798.6,289.72,800.4z"/>
				<path class="st12" d="M171.75,807.53c-6,8.32-17.49,58.87-46.09,65.23c14.74-36.03,25.93-51.83,27.68-62.91
					c3.24-20.68,3.31-42.08,1.7-62.26c9.57-16.45,16.72-27.72,16.72-27.72c0.75-2.66,15.22-46.49,19.85-7.31
					C196.22,751.74,178.45,798.22,171.75,807.53z"/>
				<path class="st15" d="M251.99,609.6c0,0-56.59,0.92-56.62-33.63c-0.04-34.55-7.37-57.7,28.76-59.74
					c36.13-2.04,43.16,11.13,46.04,22.66C273.03,550.42,266.71,608.48,251.99,609.6z"/>
				<path class="st13" d="M268.48,519.68c-8.73-10.37-15.34-8.12-19.04-5c-12.23-17.91-50.88,7.99-50.88,7.99
					c-3.78,24.79-22.02,38.99-22.02,38.99s10.31,6.24,34.09,0.25c18.71-4.72,32.29-30.82,37.23-41.73
					c3.36,2.93,10.47,9.71,12.59,16.34c2.82,8.8,4.09,26.91,9.48,26.29C269.92,562.81,281.59,535.26,268.48,519.68z"/>
				<path class="st9" d="M479.45,666.94c0,0-37.15,20.36-50.41,26.22c-4.72,2.09-13.27,5.98-22,9.98c-5.27,2.41-10.61,4.87-15.23,7
					c-7.8,3.59-17.08,1.62-22.69-4.8c-20.11-23.02-72.16-72.91-125.92-79.16l-0.19-0.08c0,0,0.01,0.02,0.02,0.06
					c-0.02,0-0.05-0.01-0.07-0.01l0.3,0.57c3.02,7.36,32.49,79.53,33.4,94.75c0.96,16.04,3.85,262.34,3.85,262.34
					s-1.93,11.32,20.22,6.6c22.14-4.72,27.92-9.44,27.92-9.44s-21.18-151.93-15.41-204.78c1.13-10.37,0.11-22.02-2.26-34.06
					c32.74,19.43,71.34,28.08,71.34,28.08s14.4-6.16,36.77-19.74c9.39-5.71,20.28-14.82,31-24.45
					c12.95-11.64,35.24-39.75,35.24-39.75L479.45,666.94z"/>
				<path class="st12" d="M391.7,1357.71l-24.52,0.74c0,0-56.64-61.81-88.42-160.9c-0.74-2.3-1.52-4.63-2.35-6.99
					c-17.39-49.69-53.44-112.07-72.43-168.53c-3.02-8.99-5.74-17.46-8.17-25.47c-0.78-2.57-1.54-5.09-2.26-7.57l20.2-15.02
					c0,0,60.65,96.26,79.42,186.84C309.47,1239.49,374.79,1334.17,391.7,1357.71z"/>
				<path class="st7" d="M215.85,1169.24c0.35,44.05-1.93,145.33-7.78,187.25h-21.72c-12.01,0-17.99-0.17-17.99-0.17
					c-14.68-72.9-25.13-133.22-32.74-185.2c-6.24-42.65-11.78-79.22-16.05-110.7c-4.29-31.68-7.28-58.21-8.35-80.62
					c-0.16-3.53-0.29-6.96-0.36-10.3c-0.07-3.35-0.09-6.6-0.06-9.77l118.52-11.32C227.83,1025.61,215.65,1143.64,215.85,1169.24z"/>
				<path class="st12" d="M186.35,1356.5c-12.01,0-17.99-0.17-17.99-0.17c-14.68-72.9-25.13-133.22-32.74-185.2
					c-6.24-42.65-11.78-79.22-16.05-110.7c-4.29-31.68-7.28-58.21-8.35-80.62l43.49,25.07c0,0-27.76,9.6-17.17,82.26
					C148.13,1159.81,171.6,1346.21,186.35,1356.5z"/>
				<path class="st9" d="M191.94,979.1c0,0-8.35,29.57-37.23,25.79c-28.88-3.77-69.96-20.76-69.96-20.76s12.34-38.23,27.69-88.45
					c18.58-60.8,41.58-139.18,52.43-188.62c3.04-13.85,5.12-25.42,5.89-33.71l24.46-45.59c0,0,35.23,78.62,37.16,98.44
					C234.31,746.01,191.94,979.1,191.94,979.1z"/>
				<path class="st15" d="M295.1,748.31c-13.9,1.79-19.23,9.03-20.95,18.8c-0.93,5.27-3.7,10.48-6.05,14.16
					c-13.85,0.73-46.83,2.49-74.53,4.21l-2.29,35.62c22.76-2.78,50.73-8.44,82.92-19.24c2.47-0.41,5.56-1.92,9.44-5.03
					c19.95-16.01,31.27-42.83,31.31-46.66C314.98,746.33,309,746.52,295.1,748.31z"/>
				<path class="st19" d="M190.66,767.71c-1.29,32.08-8.99,94.37-77.67,127.71c-0.18,0.08-0.37,0.18-0.55,0.25
					c18.58-60.8,41.58-139.18,52.43-188.62C177.48,725.53,191.36,750.05,190.66,767.71z"/>
				<path class="st9" d="M195.22,627.76c0,0-58.75,4.08-72.87,34.91c-14.12,30.83-18.61,133.37-0.64,163.57
					c0,0,24.74,6.91,68.51-1.11c0.54-0.1,1.08-0.2,1.62-0.3c0,0,13.96-33.5,1.44-40.11c0,0-36.91,1.89-33.06-10.07
					C164.08,762.7,195.22,627.76,195.22,627.76z"/>
				<g>
					<path class="st15" d="M519.27,642.74c-31.61-3.98-39.58,24.2-39.58,24.2l5.9,19.35c9.74,1.32,18.27-1.17,26.12-12.19
						c7.85-11.02,10.02-6.79,15.01-14.98C533.5,648,522.9,643.86,519.27,642.74z"/>
					<path class="st15" d="M429.03,693.16c-4.72,2.09-13.27,5.98-22,9.98c4.67,8.13,10.52,22.91,12.07,47.34
						c9.39-5.71,21.55-15.22,31.93-25.21c16.65-16.02,34.31-38.99,34.31-38.99l-5.9-19.35C479.45,666.94,442.3,687.29,429.03,693.16
						z"/>
				</g>
			</g>
			<g class="st1">
				<g>
					<path class="st15" d="M2105.67,917.62c0,0-22.48,5.66-36.76,1.44c-14.29-4.22-38.88,2.71-42.84,7.82
						c-3.96,5.11-2.51,7.13,4.56,8.9c7.07,1.76,32.1,12.23,48.55,6.17c16.45-6.06,37.91-6.28,37.91-6.28L2105.67,917.62z"/>
					<path class="st14" d="M2299.91,726.27c0,0-25.25,175.87-67.05,191.63c-20.63,7.77-111.8,25.39-138.76,27.16
						c0,0-6.61-5.25-5-26.63c0,0,95.52-34.37,109.08-53.06c20.19-27.82-12.54-113.64,12.8-139.77
						C2236.32,699.47,2279.01,688.24,2299.91,726.27z"/>
				</g>
				<path class="st10" d="M2296.69,1403.92v-38.35h61.6c1.66,0,3.02-1.33,3.02-2.96v-6.14c0-1.63-1.36-2.96-3.02-2.96h-61.6v-218.28
					c0-6.12-5.11-11.14-11.36-11.14h-12.19c-6.25,0-11.36,5.01-11.36,11.14v218.28h-61.6c-1.66,0-3.02,1.33-3.02,2.96v6.14
					c0,1.63,1.36,2.96,3.02,2.96h61.6v38.35c-44.57,3.3-80.27,19.03-90.29,39.34h215.49
					C2376.96,1422.95,2341.25,1407.22,2296.69,1403.92z"/>
				<path class="st13" d="M2291.4,1096.8c-7.36,12.24-15.88,23.72-24.66,34.58c-27.14,33.57-56.67,61.26-61.82,87.43
					c-1.02,5.22-2.65,10.83-4.77,16.75c-2.15,5.99-4.8,12.3-7.87,18.81c-11.51,24.52-28.73,51.99-45.93,76.95
					c-29.72,43.16-57.67,79.18-57.67,79.18l-51.25-2.14c2.05-5.03,24.41-64.63,54.31-137.47c12.14-29.57,25.06-61.02,37.51-91.35
					c1.66-4.05,3.32-8.09,4.96-12.08c3.81-9.28,7.56-18.42,11.22-27.32c28.08-68.39,50.45-122.85,50.45-122.85
					s112.23-41.67,123.88-14.67C2329.37,1024.9,2321.54,1046.71,2291.4,1096.8z"/>
				<path class="st13" d="M2205.76,1282.95c0,0,35.65,22.45,32.19,29.74c-0.46,0.97-20.16,35.56-20.16,35.56l-25.41,44.01
					c0,0-10.69-6.23-5.63-20.39c5.06-14.16,8.11-40.82-4.84-58.16C2168.28,1295.46,2205.76,1282.95,2205.76,1282.95z"/>
				<path class="st14" d="M2157.52,997.52c0,0-140.87,86-156.59,143.8c-15.72,57.8,187.39,181.09,187.39,181.09
					s22.28-19.27,26.21-33.39c0,0-91.81-107.81-111.73-131.97c-12.23-14.84,180.85-51.38,204.43-87.34
					c23.59-35.96,15.14-66.22,15.14-66.22L2157.52,997.52z"/>
				<path class="st7" d="M2423.38,1107.96h-288.31c-5.77,0-10.48,4.62-10.48,10.27v56.51c0,5.65,4.72,10.28,10.48,10.28h288.31
					c5.77,0,10.48-4.62,10.48-10.28v-56.51C2433.86,1112.58,2429.15,1107.96,2423.38,1107.96z"/>
				<path class="st15" d="M2222.67,696.12c-13.84,8.4-21.46,19.06-21.46,19.06c33.75,8.56,89.69-22.09,89.69-22.09
					s-21.72-14.31-29.77-45.74c-0.41-1.59-0.78-3.21-1.11-4.88c-1.05-5.29-1.71-11.03-1.83-17.21l-15.5,13.61l-25.78,22.64
					c0,0,0.58,9.39,3.81,25.55C2221.28,689.87,2221.93,692.9,2222.67,696.12z"/>
				<path class="st10" d="M2326.48,852.16c-4.83,63.72,3.3,160.6-2.19,177.38c-4.73,14.48-60.43,5.91-81.95,1.07
					c-7.97-1.79-17.62-4.35-27.58-7.37c-27.8-8.44-58.09-20.48-61.34-29.43c-0.13-0.35-0.23-0.69-0.3-1.03
					c-0.3-1.3-0.23-2.51,0.06-3.75c1.08-4.56,5.26-9.49,5.75-20.78c0.55-12.6,0.47-27.44,0.95-43.4c0.03-1.8,0.05-3.76,0.25-5.55
					l0.01-0.65c0.01-0.34,0.02-0.68,0.02-1.02c0.47-17.8,1.42-36.51,2.52-55.07c0.7-11.66,1.51-23.2,2.44-34.26
					c2.43-28.54,5.69-53.93,10.02-69.98c7.07-26.16,22.65-43.22,36.83-55.73l10.26-8.63c11.45,2.45,24.98,0.82,37.22-4.86
					c13.25-6.17,17.82-10.59,20.13-8.92C2310.18,703.36,2332.18,774.26,2326.48,852.16z"/>
				<path class="st14" d="M2214.91,1023.38c-27.8-8.44-58.09-20.48-61.34-29.43c-0.13-0.35-0.23-0.69-0.3-1.03
					c0.02-1.25,0.03-2.5,0.06-3.75c1.08-4.56,5.26-9.49,5.75-20.78c0.55-12.6,0.47-27.44,0.95-43.4c0.03-1.8,0.05-3.76,0.25-5.55
					l0.01-0.65c0.01-0.34,0.02-0.68,0.02-1.02l105.01-46.68C2265.32,871.1,2271.37,954.05,2214.91,1023.38z"/>
				<path class="st17" d="M2216.91,661.5c0,0,0.58,9.39,3.81,25.55c25.17-7.97,36.59-30.26,40.4-39.71
					c1.08-2.67,1.55-4.32,1.55-4.32s-0.98-0.21-2.66-0.55c-3.54-0.74-10.2-2.12-17.33-3.6L2216.91,661.5z"/>
				<path class="st15" d="M2206.72,661.26c0,0,55.3,6.11,58.66-27.7c3.35-33.81,12.75-55.8-22.42-61.13
					c-35.17-5.33-43.32,6.91-47.24,17.93C2191.8,601.38,2192.42,658.79,2206.72,661.26z"/>
				<path class="st10" d="M2265.14,635.89c0,0-3.51-44.88-53.85-49.53c-34.48-3.18-15.26-32.27-11.58-36.91
					c0,0,26.42,3.55,53.5,7.94C2310.05,566.58,2270.72,628.9,2265.14,635.89z"/>
				<g>
					<polygon class="st20" points="1997.45,961.69 1992.61,963.23 1951.42,838.99 1956.26,837.45 					"/>
					
						<rect x="1992.5" y="953.57" transform="matrix(0.9998 -0.0209 0.0209 0.9998 -19.5928 43.3778)" class="st20" width="139.86" height="8.2"/>
				</g>
				<g>
					<path class="st15" d="M2117.24,944.65c0,0-21.7,8.05-36.38,5.4c-14.67-2.65-38.33,6.89-41.7,12.4
						c-3.36,5.5-1.69,7.36,5.53,8.35c7.22,0.99,33.28,8.68,48.95,0.89c15.67-7.8,36.98-10.34,36.98-10.34L2117.24,944.65z"/>
					<path class="st10" d="M2288.77,733.48c0,0-5.31,177.53-45.09,197.7c-19.63,9.95-108.26,37.32-134.86,41.99
						c0,0-7.16-4.51-7.96-25.93c0,0,91.07-44.48,102.45-64.52c16.94-29.83-25.24-111.59-3-140.3
						C2222.56,713.72,2263.71,697.95,2288.77,733.48z"/>
				</g>
			</g>
		</g>
	</g>
	<g>
		<path class="st22" d="M2425.91,1312.01L2425.91,1312.01c-0.19,0.35-0.38,0.68-0.57,1.03c-1.37,2.43-2.78,4.9-4.23,7.38
			l-2214.04-0.66c0,0-2.15-2.38-6.01-6.95c-0.22-0.26-0.44-0.52-0.67-0.8c-9.89-11.78-29.79-36.57-53.09-71.53
			c0-0.01-0.01-0.02-0.02-0.04c-61.83-92.79-147.5-257.1-133.08-439.47c4.07-51.48,16.1-104.39,38.91-157.55
			c69.16-161.22,275.49-269.89,461.37-272.08c71.94-0.85,140.83,14.26,197.51,48.45c10.05,6.06,22.69,10.74,37.39,13.93
			c12.39,2.7,26.24,4.33,41.28,4.85c120.72,4.22,317.05-63.28,433.5-233.1c61.84-90.18,156.76-149.22,265.87-179.97
			c5.08-1.42,10.21-2.8,15.35-4.1c24.81-6.32,50.3-11.22,76.24-14.72c4.67-0.63,9.36-1.22,14.06-1.75
			c115.14-13.26,238.45,0.46,351.56,38.36c14.9,4.99,29.62,10.4,44.12,16.23c212.86,85.53,378.46,260.18,363.89,504.03
			c-0.57,9.64-1.43,19.4-2.59,29.26c-2.17,18.78-5.42,37.95-9.76,57.5c-2.57,11.52-5.5,23.18-8.86,34.96
			C2246.33,994.39,2597.05,1008.35,2425.91,1312.01z"/>
		<g>
			<path class="st23" d="M2425.91,1312.01L2425.91,1312.01l-1723.34,0.19l14.86-511.03V662.31h64.46V553.87h128.59v92.04h39.27
				V475.69h8.54v-11.9h1.53v11.9h31.02v-11.9h1.54v11.9h43.9v-11.9h1.54v11.9h27.64v-11.9h1.52v11.9h11.35v158.91h43.41v-25.7
				l51.19,0.23v-41.65h10.29v-8.24h1.37v8.24h39.53v0.02h7.91v-8.25h1.36v8.25h9.54v82.81h60.93v30.48h33.88v-17.7h31.42v-70.26
				h15.67v-32.78h2.36v32.78h37.55v-61.44h3.69v61.44h24.84v-0.85h-0.04v-7.8h0.04v-7.38h-0.04V564.5h0.04v-7.84h-0.04v-12.28h0.04
				v-7.84h-0.04v-12.28h0.04v-8.47h-0.04v-12.27h0.04v-10.79h-0.04v-12.27h0.04v-8.14h7.4v-9.19h1.19v9.19h54.84v-9.19h1.18v9.19
				h10.01v64.23l7.04,0.04v-0.04h-0.06v-12.28h0.06v-8.47h-0.06v-12.27h0.06v-8.44h-0.06v-12.28h0.06v-0.04h66.5v0.04h11.43
				c0.58,0.32,1.19,0.66,1.78,0.98v81.91h12.23v-11.81h140.36v92.04h42.86V475.69h9.32v-11.9h1.68v11.9h33.84v-11.9h1.68v11.9h47.93
				v-11.9h1.68v11.9h30.17v-11.9h1.67v11.9h12.4v158.91h47.37v-25.7l55.86,0.23v-41.64h11.25v-8.24h1.49v8.24h43.13v0.01h8.63v-8.25
				h1.48v8.25h10.41v82.82h66.51v30.47h36.98v-17.7h34.29v-70.27h17.1v-32.77h2.58v32.77h40.98v-61.43h4.02v61.43h20.15
				c-2.17,18.78-5.42,37.95-9.76,57.5c-2.57,11.52-5.5,23.18-8.86,34.96C2246.33,994.39,2597.05,1008.35,2425.91,1312.01z"/>
		</g>
		<path class="st24" d="M1991.36,59.53V1312h-44.12V43.29C1962.14,48.28,1976.86,53.69,1991.36,59.53z"/>
		<path class="st25" d="M749.37,433.72v879.08H201.06c-0.22-0.26-0.44-0.52-0.67-0.8c-9.89-11.78-29.79-36.57-53.09-71.53
			c0-0.01-0.01-0.02-0.02-0.04c-61.83-92.79-147.5-257.1-133.08-439.47c4.07-51.48,16.1-104.39,38.91-157.55
			c69.16-161.22,275.49-269.89,461.37-272.08c71.27,0.78,139.21,16.04,195.62,48.45C720.65,425.86,733.93,430.54,749.37,433.72z"/>
		<g>
			<path class="st26" d="M1595.68,4.93v154.24c0,12.03-2.96,21.84-6.57,21.84h-0.94c-3.61,0-6.56-9.81-6.56-21.84V6.68
				C1586.29,6.05,1590.98,5.46,1595.68,4.93z"/>
			<path class="st27" d="M1584.98,143.9c-51.23,0-92.76,43.57-92.76,97.33h185.53C1677.75,187.48,1636.22,143.9,1584.98,143.9z"/>
			<path class="st28" d="M1592.37,145.09c-2.67-0.58-5.38-0.88-8.15-0.88c-33.38,0-60.44,43.44-60.44,97.02h16.29
				C1540.08,192.08,1562.85,151.48,1592.37,145.09z"/>
		</g>
		<g>
			<g>
				<path class="st29" d="M2195.91,1168.45c0,0-24.69-28.58-1.52-46.73c0,0,16.92-10.16,30.72-9.34c0,0-19.55,32.53-13.23,35.76
					c6.32,3.24,19.15-37.8,19.15-37.8s38.5-3.71,50.89,2.2c0,0-32.92,26.73-25.98,28.32c6.93,1.59,42.49-24.64,42.49-24.64
					s35.84,6.05,33.93,27.74c-1.91,21.69-14.26,28.39-19.69,27.81c-5.43-0.58-37.18-12.6-37.87-8.19
					c-0.69,4.41,18.42,18.83,31.8,19.51c0,0-25.27,27.65-42.06,19.67c-16.79-7.98-18.23-20.63-28.69-25.37
					c-10.47-4.74-19.4-4.73-15.08,0.11c4.32,4.84,23.27,9.54,29.25,20.05c5.99,10.51,11.36,17.59-6.02,15
					c-17.37-2.59-45.61-15.21-46.85-29.65C2195.91,1168.45,2195.91,1168.45,2195.91,1168.45z"/>
				<g>
					<path class="st29" d="M2314.74,1144.55c0,0-97.34-3.72-118.83,23.9c0,0-4.75,14.13-19.38,26.99l-2.28,6.17
						c0,0,16.87-17.65,22.9-18.71C2197.15,1182.9,2187.71,1148.68,2314.74,1144.55z"/>
					<path class="st29" d="M2176.53,1195.44c0,0-20.89,15.33-22.34,42.72l3.79,0.34c0,0,6.67-28.32,18.73-39.4
						C2188.77,1188.03,2176.53,1195.44,2176.53,1195.44z"/>
				</g>
			</g>
			<g>
				<path class="st29" d="M2109.6,1132.51c0,0,39.27-21.82,20.94-51.43c0,0-14.66-18.18-30.37-22.86c0,0,8.38,44.16,0,45.2
					c-8.38,1.04-5.76-49.88-5.76-49.88s-41.37-19.74-57.6-18.18c0,0,25.66,43.12,17.28,42.08c-8.38-1.04-37.18-44.68-37.18-44.68
					s-42.41-7.79-49.22,17.15c-6.81,24.94,4.19,37.41,10.47,38.96c6.28,1.56,46.6,1.04,45.55,6.23c-1.05,5.2-28.28,13.51-43.46,8.83
					c0,0,16.76,41.04,38.75,38.96c21.99-2.08,28.8-15.59,42.41-16.63c13.61-1.04,23.56,2.6,16.76,6.23
					c-6.81,3.64-29.84,1.19-40.84,10.47c-10.99,9.28-19.9,14.99,0.52,19.15c20.42,4.16,57.07,1.56,64.4-14.03
					C2109.6,1132.51,2109.6,1132.51,2109.6,1132.51z"/>
				<g>
					<path class="st29" d="M1987.07,1057.7c0,0,109.96,35.33,122.52,74.81c0,0-0.52,17.66,10.47,37.93v7.79
						c0,0-11.52-26.5-17.8-30.13C2102.26,1148.1,2126.87,1113.81,1987.07,1057.7z"/>
					<path class="st29" d="M2120.07,1170.44c0,0,16.96,25.55,7.29,56.65l-4.36-1.16c0,0,4.23-34.26-4.64-51.49
						C2109.49,1157.21,2120.07,1170.44,2120.07,1170.44z"/>
				</g>
			</g>
			<g>
				<path class="st26" d="M2172.07,1102.42c0,0-51.77-28.76-27.61-67.8c0,0,19.33-23.97,40.03-30.13c0,0-11.04,58.21,0,59.58
					c11.04,1.37,7.59-65.75,7.59-65.75s54.53-26.02,75.92-23.97c0,0-33.82,56.84-22.78,55.47c11.04-1.37,49.01-58.9,49.01-58.9
					s55.91-10.27,64.88,22.6c8.97,32.87-5.52,49.31-13.8,51.36c-8.28,2.05-61.43,1.37-60.05,8.22c1.38,6.85,37.27,17.81,57.29,11.64
					c0,0-22.09,54.1-51.07,51.36c-28.99-2.74-37.96-20.55-55.91-21.91c-17.95-1.37-31.06,3.42-22.09,8.22
					c8.97,4.79,39.34,1.57,53.84,13.8s26.23,19.76-0.69,25.24c-26.92,5.48-75.23,2.05-84.9-18.49S2172.07,1102.42,2172.07,1102.42z"
					/>
				<g>
					<path class="st26" d="M2333.58,1003.8c0,0-144.94,46.57-161.51,98.62c0,0,0.69,23.28-13.8,49.99v10.27
						c0,0,15.19-34.93,23.47-39.72C2181.73,1122.96,2149.29,1077.77,2333.58,1003.8z"/>
					<path class="st26" d="M2158.27,1152.41c0,0-22.35,33.68-9.61,74.68l5.75-1.53c0,0-5.58-45.16,6.11-67.87
						C2172.22,1134.98,2158.27,1152.41,2158.27,1152.41z"/>
				</g>
			</g>
			<path class="st26" d="M2170.33,1316c56,0,101.4-45.05,101.4-100.61h-202.8C2068.93,1270.95,2114.33,1316,2170.33,1316z"/>
			<path class="st24" d="M2195.28,1315.23c-4.12,0.51-8.33,0.77-12.6,0.77c-56,0-101.4-45.05-101.4-100.61h25.19
				C2106.48,1266.72,2145.22,1309.07,2195.28,1315.23z"/>
			<rect x="2065.59" y="1215.38" class="st26" width="208.44" height="3.09"/>
		</g>
		<g>
			<g>
				<path class="st29" d="M1698.26,1311.05l-99.64-410.35l6.96-16.15l98.71,426.45c0.25,1.09-0.58,2.14-1.71,2.14h-1.65
					C1699.66,1313.14,1698.56,1312.28,1698.26,1311.05z"/>
			</g>
			<g>
				<g>
					<path class="st29" d="M1248.57,1313.14L1248.57,1313.14c-2.05,0-3.61-1.82-3.27-3.83l29.35-176.5h12.58l-35,177.34
						C1251.88,1311.89,1250.35,1313.14,1248.57,1313.14z"/>
				</g>
				<g>
					<path class="st29" d="M1530.1,1313.14L1530.1,1313.14c-2.05,0-3.61-1.82-3.27-3.83l29.35-176.5h12.58l-35,177.34
						C1533.41,1311.89,1531.88,1313.14,1530.1,1313.14z"/>
				</g>
				<polygon class="st30" points="1598.36,1133.19 1247.87,1133.19 1320.48,681.49 1670.98,681.49 				"/>
				<rect x="1222.05" y="1129.74" class="st29" width="402.53" height="13.29"/>
				<g>
					<path class="st31" d="M1459.28,776c-0.27,3.58-0.8,7.09-1.57,10.51c-7.31,32.28-36.28,57.02-69.01,57.07
						c-36.22,0.06-63.34-30.1-60.58-67.36c2.77-37.27,34.37-67.52,70.59-67.58c7.59-0.01,14.79,1.3,21.39,3.74
						c2.97,1.09,5.83,2.41,8.54,3.93c5.86,3.3,11.08,7.56,15.48,12.59c2.45,2.8,4.65,5.84,6.57,9.08c1.11,1.88,2.13,3.82,3.04,5.84
						c2.55,5.59,4.3,11.65,5.15,18.06c0.43,3.21,0.62,6.51,0.58,9.87C1459.45,773.15,1459.39,774.57,1459.28,776z"/>
					<path class="st32" d="M1453.74,743.82l-60.03,32.3c0,0,24.77-43.28,34.93-59.8c5.86,3.3,11.08,7.56,15.48,12.59
						c2.45,2.8,4.65,5.84,6.57,9.08C1451.81,739.86,1452.82,741.8,1453.74,743.82z"/>
					<path class="st33" d="M1459.97,735.65l-54.83,29.5c0,0,22.62-39.53,31.91-54.62c5.35,3.02,10.12,6.9,14.14,11.5
						c2.24,2.56,4.25,5.34,6,8.3C1458.21,732.03,1459.14,733.81,1459.97,735.65z"/>
				</g>
				<g>
					<g>
						<path class="st31" d="M1570.45,1098.85l-288.48-0.02l29.21-165.16l288.49,0.02L1570.45,1098.85z M1284.3,1097.16l284.41,0.02
							l28.62-161.83l-284.41-0.02L1284.3,1097.16z"/>
					</g>
					<g>
						<path class="st33" d="M1553.25,1076.2l-255.85-0.02c0,0,45.38-24.15,57.84-22.88c12.45,1.27,30.34,11.04,41.85,11.42
							c11.51,0.38,23.97-33.9,36.77-32.28c12.81,1.62,17.63,31.93,24.26,28.97c6.63-2.96,26.55-4.24,38.01,0
							c11.47,4.25,28.18-13.49,38.26-12.94C1544.48,1049.04,1553.25,1076.2,1553.25,1076.2z"/>
						<g>
							<polygon class="st33" points="1358.92,1027.66 1310.05,1027.66 1310.5,1025.09 1359.37,1025.09 							"/>
							<polygon class="st33" points="1357.94,1033.15 1309.08,1033.15 1309.53,1030.58 1358.4,1030.58 							"/>
						</g>
					</g>
					<g>
						<path class="st31" d="M1312.03,993.4l255.85,0.02c0,0-36.84-24.15-49.74-22.89c-12.9,1.26-34.25,11.04-45.89,11.42
							c-11.64,0.38-11.98-33.9-25.36-32.28c-13.38,1.61-28.92,31.93-34.51,28.97c-5.59-2.96-25.04-4.25-38.01,0
							c-12.97,4.25-23.41-13.5-33.69-12.94C1330.41,966.23,1312.03,993.4,1312.03,993.4z"/>
						<g>
							<polygon class="st31" points="1372.72,949.6 1323.85,949.59 1324.31,947.02 1373.18,947.02 							"/>
							<polygon class="st31" points="1371.75,955.09 1322.88,955.09 1323.34,952.51 1372.2,952.52 							"/>
						</g>
					</g>
				</g>
				<g>
					<polygon class="st31" points="1328.62,910.64 1317.4,910.64 1327.15,858.46 1338.37,858.46 					"/>
					<polygon class="st31" points="1343.91,910.64 1332.69,910.64 1340.24,870.22 1351.46,870.22 					"/>
					<polygon class="st31" points="1359.2,910.64 1347.97,910.64 1355.85,868.49 1367.07,868.49 					"/>
					<polygon class="st31" points="1374.48,910.64 1363.26,910.64 1369.25,878.58 1380.47,878.58 					"/>
					<polygon class="st31" points="1389.77,910.64 1378.55,910.64 1384.98,876.24 1396.2,876.24 					"/>
					<polygon class="st31" points="1405.06,910.64 1393.83,910.64 1398.82,883.97 1410.04,883.97 					"/>
				</g>
				<g>
					<polygon class="st33" points="1478.74,910.64 1467.52,910.64 1477.27,858.46 1488.49,858.46 					"/>
					<polygon class="st33" points="1494.03,910.64 1482.8,910.64 1490.36,870.22 1501.58,870.22 					"/>
					<polygon class="st33" points="1509.31,910.64 1498.09,910.64 1505.97,868.49 1517.19,868.49 					"/>
					<polygon class="st33" points="1524.6,910.64 1513.38,910.64 1519.37,878.58 1530.59,878.58 					"/>
					<polygon class="st33" points="1539.89,910.64 1528.67,910.64 1535.09,876.24 1546.32,876.24 					"/>
					<polygon class="st33" points="1555.17,910.64 1543.95,910.64 1548.94,883.97 1560.16,883.97 					"/>
				</g>
				<g>
					<g>
						<polygon class="st31" points="1532.77,740.32 1496.24,740.32 1497.18,735.35 1533.71,735.35 						"/>
						<polygon class="st31" points="1577.58,740.32 1537.25,740.32 1538.19,735.35 1578.52,735.35 						"/>
						<polygon class="st31" points="1606.33,740.32 1580.62,740.32 1581.55,735.35 1607.27,735.35 						"/>
						<polygon class="st31" points="1630.34,740.32 1610.49,740.32 1611.43,735.35 1631.28,735.35 						"/>
					</g>
					<g>
						<polygon class="st31" points="1528.76,761.5 1492.23,761.5 1493.17,756.54 1529.7,756.54 						"/>
						<polygon class="st31" points="1573.57,761.5 1533.24,761.5 1534.18,756.54 1574.51,756.54 						"/>
						<polygon class="st31" points="1602.32,761.5 1576.61,761.5 1577.55,756.54 1603.26,756.54 						"/>
						<polygon class="st31" points="1626.33,761.5 1606.48,761.5 1607.42,756.54 1627.27,756.54 						"/>
					</g>
					<g>
						<polygon class="st31" points="1554.48,728.73 1498.43,728.73 1499.37,723.77 1555.42,723.77 						"/>
						<polygon class="st31" points="1592.12,728.73 1559.82,728.73 1560.76,723.77 1593.06,723.77 						"/>
						<polygon class="st31" points="1632.56,728.73 1596.68,728.73 1597.62,723.77 1633.5,723.77 						"/>
					</g>
					<g>
						<polygon class="st31" points="1550.21,751.26 1494.17,751.26 1495.11,746.29 1551.15,746.29 						"/>
						<polygon class="st31" points="1587.86,751.26 1555.55,751.26 1556.49,746.29 1588.8,746.29 						"/>
						<polygon class="st31" points="1628.29,751.26 1592.42,751.26 1593.36,746.29 1629.23,746.29 						"/>
					</g>
					<g>
						<polygon class="st31" points="1524.75,782.69 1488.22,782.69 1489.16,777.72 1525.69,777.72 						"/>
						<polygon class="st31" points="1569.56,782.69 1529.23,782.69 1530.17,777.72 1570.5,777.72 						"/>
						<polygon class="st31" points="1598.31,782.69 1572.6,782.69 1573.54,777.72 1599.25,777.72 						"/>
						<polygon class="st31" points="1622.32,782.69 1602.48,782.69 1603.41,777.72 1623.26,777.72 						"/>
					</g>
					<g>
						<polygon class="st31" points="1546.2,772.44 1490.16,772.44 1491.1,767.48 1547.14,767.48 						"/>
						<polygon class="st31" points="1583.85,772.44 1551.54,772.44 1552.48,767.48 1584.79,767.48 						"/>
						<polygon class="st31" points="1624.28,772.44 1588.41,772.44 1589.35,767.48 1625.22,767.48 						"/>
					</g>
					<g>
						<polygon class="st31" points="1520.99,802.55 1484.46,802.55 1485.4,797.58 1521.93,797.58 						"/>
						<polygon class="st31" points="1565.8,802.55 1525.47,802.55 1526.41,797.58 1566.74,797.58 						"/>
						<polygon class="st31" points="1594.55,802.55 1568.84,802.55 1569.78,797.58 1595.49,797.58 						"/>
						<polygon class="st31" points="1618.56,802.55 1598.72,802.55 1599.66,797.58 1619.5,797.58 						"/>
					</g>
					<g>
						<polygon class="st31" points="1542.45,792.3 1486.4,792.3 1487.34,787.34 1543.39,787.34 						"/>
						<polygon class="st31" points="1580.09,792.3 1547.78,792.3 1548.72,787.34 1581.03,787.34 						"/>
						<polygon class="st31" points="1620.53,792.3 1584.65,792.3 1585.59,787.34 1621.47,787.34 						"/>
					</g>
				</g>
				<g>
					<polygon class="st31" points="1437.86,866.22 1419.98,866.22 1420.44,863.79 1438.32,863.79 					"/>
					<polygon class="st31" points="1459.79,866.22 1440.05,866.22 1440.51,863.79 1460.25,863.79 					"/>
					<polygon class="st31" points="1435.9,876.59 1418.02,876.59 1418.48,874.16 1436.36,874.16 					"/>
					<polygon class="st31" points="1457.83,876.59 1438.09,876.59 1438.55,874.16 1458.29,874.16 					"/>
					<polygon class="st31" points="1448.49,860.55 1421.05,860.55 1421.51,858.12 1448.95,858.12 					"/>
					<polygon class="st31" points="1466.91,860.55 1451.1,860.55 1451.56,858.12 1467.37,858.12 					"/>
					<polygon class="st31" points="1446.4,871.58 1418.97,871.58 1419.43,869.15 1446.86,869.15 					"/>
					<polygon class="st31" points="1464.82,871.58 1449.01,871.58 1449.47,869.15 1465.28,869.15 					"/>
				</g>
				<g>
					<polygon class="st31" points="1581.09,866.22 1563.21,866.22 1563.67,863.79 1581.55,863.79 					"/>
					<polygon class="st31" points="1603.02,866.22 1583.28,866.22 1583.74,863.79 1603.48,863.79 					"/>
					<polygon class="st31" points="1579.13,876.59 1561.25,876.59 1561.71,874.16 1579.59,874.16 					"/>
					<polygon class="st31" points="1601.06,876.59 1581.32,876.59 1581.78,874.16 1601.52,874.16 					"/>
					<polygon class="st31" points="1591.72,860.55 1564.28,860.55 1564.74,858.12 1592.18,858.12 					"/>
					<polygon class="st31" points="1610.14,860.55 1594.33,860.55 1594.79,858.12 1610.6,858.12 					"/>
					<polygon class="st31" points="1589.63,871.58 1562.2,871.58 1562.66,869.15 1590.09,869.15 					"/>
					<polygon class="st31" points="1608.05,871.58 1592.24,871.58 1592.7,869.15 1608.51,869.15 					"/>
				</g>
			</g>
		</g>
		<g>
			<g>
				<path class="st34" d="M1676.22,1306.44c-0.63,8.49-12.7,8.58-26.4,7c-13.7-1.58-10.06,1.86-29.24,2.13
					c-19.18,0.26-25.79-6.03-26.72-8.75c-0.83-2.41,8.41-4.44,18.29-6.83c1.24-0.3,2.49-0.61,3.74-0.92
					c11.14-2.81,18.52-11.09,28.06-18.31c9.03-6.85,20.68-31.62,20.68-31.62l26.21-1.17c0,0-11.04,22.21-15.18,31.78
					c-2.44,5.63-1.4,12.55-0.34,17.86C1675.88,1300.5,1676.44,1303.45,1676.22,1306.44z"/>
				<path class="st35" d="M1649.82,1313.45c-13.7-1.58-10.06,1.86-29.24,2.13c-19.18,0.26-25.79-6.03-26.72-8.75
					c-0.83-2.41,8.41-4.44,18.29-6.83l0.12,0.18c0,0,12.35,6.58,28.15,5c12.87-1.28,26.01-6.61,34.9-7.57
					c0.57,2.89,1.13,5.84,0.91,8.83C1675.59,1314.93,1663.52,1315.03,1649.82,1313.45z"/>
			</g>
			<g>
				<path class="st34" d="M1857.2,1308.2c-0.62,8.49-12.69,8.59-26.39,7.03c-13.7-1.56-10.06,1.87-29.24,2.16
					c-19.18,0.28-25.8-6-26.73-8.72c-0.83-2.41,8.41-4.45,18.29-6.85c1.24-0.3,2.49-0.61,3.74-0.92
					c11.14-2.82,18.51-11.11,28.04-18.34c9.03-6.85,0.01-47.43,0.01-47.43l28.82-2.78c0,0-1.38,34.17-1.36,49.7
					c0.01,6.13,2.85,12.02,3.91,17.33C1856.85,1302.26,1857.42,1305.21,1857.2,1308.2z"/>
				<path class="st35" d="M1830.8,1315.23c-13.7-1.56-10.06,1.87-29.24,2.16c-19.18,0.28-25.8-6-26.73-8.72
					c-0.83-2.41,8.41-4.45,18.29-6.85l0.12,0.18c0,0,12.36,6.57,28.15,4.97c12.87-1.29,26.01-6.64,34.89-7.6
					c0.57,2.89,1.14,5.84,0.92,8.83C1856.58,1316.7,1844.5,1316.8,1830.8,1315.23z"/>
			</g>
			<path class="st36" d="M1773.08,606.84c-4.96-20.25,2.23-29.68,8.72-34.7c3.08-7.45,6.59-12.82,10.18-14.85
				c6.55-3.69,14.4-4.1,19.89-3.78c-1.41-1.45-4.19-1.98-4.19-1.98c3.4-0.5,11,2.85,11,2.85c47.36-18.11,54.8,51.08,53.81,67.16
				c-0.99,16.07-0.86,35.01,23.78,47.67c47.01,24.17-15.63,115.23-15.63,115.23c1.2-12.99-59.21-81.54-90.73-102.07
				c-7.67-11.21-10.4-31-10.6-32.56c1.32,15.7,4.03,24.5,6.45,29.46C1771.41,666.16,1769.28,634.66,1773.08,606.84z"/>
			<path class="st34" d="M1791.79,683.4c-0.16,0.07,15.22,7.99,26.78,4.85c10.88-2.94,17.99-16.94,17.84-16.97
				c-4.61-0.91-5.94-7.19-5.84-34.18l-2.08,0.41l-35.02,6.88c0,0,0.8,10.93,0.82,21.24C1794.32,674.28,1793.79,682.48,1791.79,683.4
				z"/>
			<path class="st37" d="M1793.47,644.39c0,0,0.8,10.93,0.82,21.24c19.59-0.55,29.95-18.28,34.2-28.11L1793.47,644.39z"/>
			<path class="st38" d="M1651,1262.91c-1.72,5.34,2.14,10.84,7.79,11.11l13.68,0.63l14.47,0.44c3.62,0.11,7.08-1.46,9.37-4.24
				c11.55-14.06,47.12-60.94,68.69-129.04c0.61-1.91,1.25-3.84,1.93-5.8c14.25-41.22,43.78-92.95,59.34-139.78
				c2.48-7.46,4.7-14.48,6.7-21.12c0.64-2.13,1.26-4.22,1.85-6.28c11.47-39.54,14.79-65.5,17.85-93.24l-112.39,0.89
				C1740.28,876.47,1716.62,1058.94,1651,1262.91z"/>
			<path class="st32" d="M1756.02,812.4c0.28,53.06-7.85,75.83-7.85,75.83s48.12,24.26,105.31,6.4
				c0.67-0.21,40.92-11.52,40.92-11.52c-0.96-2.15-8.91-37.65-9.84-39.62c-12.07-25.73-15.37-36.53-16.8-44.44
				c-2.66-14.77-2.71-30.05-1.39-44.46c3.49-38.15,13.87-69.82,13.87-69.82c-15.58-3.52-30.18-9.7-46.4-15.73
				c-3.73,4.61-15.13,9.43-25.03,9.21c-11.39-0.25-15.09-5.09-14.5-10.37c-12.14,6.7-21.83,13.03-21.83,13.03
				c-10.32,17.78-31.24,35.05-32.76,62.33C1739.36,749.95,1756.01,810.91,1756.02,812.4z"/>
			<path class="st39" d="M1852.67,818.31c4.91,6.9,14.33,48.83,37.76,54.1c-12.07-29.89-21.24-42.99-22.68-52.18
				c-2.66-17.15-2.71-34.9-1.39-51.64c-7.84-13.64-13.7-22.99-13.7-22.99c-0.62-2.21-12.47-38.56-16.26-6.06
				C1832.62,772.04,1847.18,810.59,1852.67,818.31z"/>
			<path class="st34" d="M1786.93,654.15c0,0,46.36,0.76,46.39-27.9c0.03-28.65,6.04-47.85-23.56-49.55
				c-29.6-1.7-35.36,9.23-37.72,18.79C1769.69,605.06,1774.87,653.21,1786.93,654.15z"/>
			<path class="st36" d="M1788.64,576c0,0,12.69,33.62,32.17,38.59c19.48,4.97,27.93-0.21,27.93-0.21s-14.94-11.78-18.04-32.34
				C1830.71,582.04,1798.22,560,1788.64,576z"/>
			<path class="st36" d="M1791.79,578.73c0,0-9.48,7.51-11.79,14.8c-2.31,7.3-3.35,22.32-7.76,21.81c0,0-9.56-22.85,1.18-35.77
				C1784.82,565.86,1791.79,578.73,1791.79,578.73z"/>
			<polygon class="st34" points="1713.98,849.23 1692.08,915.47 1704.57,920.44 1740.78,861.91 			"/>
			<path class="st33" d="M1773.02,677.01c0,0-25.82,10.17-33.29,26.02c-7.47,15.85-18.79,122.16-23.29,133.08
				c-4.51,10.92-7.89,19.56-7.89,19.56s13.02,10.88,26.11,11.68C1747.74,868.16,1773.02,677.01,1773.02,677.01z"/>
			<path class="st33" d="M1794.32,667.88c0,0-26.82,65.75-27.61,79.05c-0.79,13.31-3.16,217.59-3.16,217.59s1.58,9.39-16.57,5.48
				c-18.14-3.91-22.88-7.83-22.88-7.83s17.35-126.02,12.62-169.85c-4.73-43.83,36.29-115.32,36.29-115.32L1794.32,667.88z"/>
			<path class="st40" d="M1672.47,1274.65l15.72,0.48c2.81,0.09,5.5-1.11,7.29-3.27c10.56-12.69,47.4-60.21,69.53-130.05
				c0.61-1.91,1.25-3.84,1.93-5.8c14.25-41.22,43.78-92.95,59.34-139.78c2.48-7.46,4.7-14.48,6.7-21.12
				c0.64-2.13,1.26-4.22,1.85-6.28l-16.55-12.46c0,0-49.69,79.84-65.07,154.97C1739.83,1176.59,1686.32,1255.12,1672.47,1274.65z"/>
			<path class="st38" d="M1816.54,1118.33c-0.27,34.56,1.38,111.61,5.62,149.26c0.39,3.45,3.33,6.05,6.82,6.05h11.73
				c4.94,0,8.64-0.04,11.1-0.07c2.13-0.03,3.94-1.54,4.35-3.61c11.66-58.88,20.01-107.8,26.12-150.06
				c5.11-35.38,9.66-65.71,13.15-91.82c3.52-26.28,5.96-48.28,6.84-66.87c0.13-2.93,0.24-5.78,0.29-8.54
				c0.06-2.78,0.07-5.48,0.05-8.1l-97.11-9.39C1806.72,999.19,1816.7,1097.09,1816.54,1118.33z"/>
			<path class="st40" d="M1840.71,1273.64c4.44,0,7.88-0.03,10.31-0.06c2.58-0.03,4.79-1.87,5.29-4.38
				c11.58-58.54,19.88-107.22,25.97-149.3c5.11-35.38,9.66-65.71,13.15-91.82c3.52-26.28,5.96-48.28,6.84-66.87l-35.63,20.8
				c0,0,22.74,7.96,14.07,68.23C1872.02,1110.5,1852.79,1265.11,1840.71,1273.64z"/>
			<path class="st33" d="M1836.12,960.61c0,0,6.84,24.52,30.5,21.39c23.67-3.13,57.32-17.22,57.32-17.22s-10.11-31.71-22.69-73.36
				c-15.22-50.43-34.07-115.44-42.95-156.45c-2.49-11.49-4.2-21.09-4.83-27.96l-19.63-37.8c0,0-29.27,65.19-30.85,81.63
				C1801.42,767.29,1836.12,960.61,1836.12,960.61z"/>
			<path class="st34" d="M1859.75,748.4l-25.91-79.18c0.07,0.03,32.73,9.64,49.16,17.88c0,0,10.27,13.13,16.62,43.44
				c0,0,6.71,72.75-8.28,99.37c0,0-47.33,9.39-123.06-16.44v-17.22c0,0,82.83,4.3,99.79,6.26L1859.75,748.4z"/>
			<path class="st41" d="M1837.17,785.29c1.06,26.61,7.37,78.27,63.64,105.92c0.15,0.07,0.3,0.15,0.45,0.21
				c-15.22-50.43-34.07-115.44-42.95-156.45C1847.97,750.3,1836.6,770.64,1837.17,785.29z"/>
			<path class="st33" d="M1833.84,669.22c0,0,48.04,3.36,59.61,28.93c11.57,25.57,15.25,110.62,0.53,135.67
				c0,0-20.27,5.73-56.13-0.92c-0.44-0.08-0.88-0.16-1.32-0.25c0,0-11.44-27.79-1.18-33.27c0,0,30.24,1.57,27.08-8.35
				C1859.26,781.11,1833.84,669.22,1833.84,669.22z"/>
			<g>
				<path class="st36" d="M1713.41,806.88l1.41,4.51l78.82-24.33c0,0,1.05-1.19,0.53-2.77c-0.57-1.74-1.95-1.75-1.95-1.75
					L1713.41,806.88z"/>
				<polygon class="st36" points="1707.71,811.15 1713.41,806.88 1714.82,811.4 				"/>
			</g>
			<path class="st34" d="M1695.19,913.66c0,0-20,10.96-22.63,19.32c-2.63,8.35-0.82,25.84,2.35,25.58
				c3.17-0.26,7.91-18.8,10.54-20.1c2.63-1.31,6.31-5.22,6.31-2.35c0,2.87-2.63,8.09-1.32,8.87c1.32,0.78,5.52-7.31,8.42-8.87
				c2.89-1.57,4.11-14.48,6.92-17.94C1708.61,914.7,1695.19,913.66,1695.19,913.66z"/>
			<path class="st34" d="M1768.28,796.25c0,0-17.88-10.93-25.38-9.25c-7.5,1.68-26.62,15.42-17.42,18.39
				c9.2,2.97,16.64-0.15,20.18,2.01c3.54,2.16,6.15,6.11,22.63,6.06C1784.77,813.41,1768.28,796.25,1768.28,796.25z"/>
		</g>
		<g>
			<g class="st42">
				<g>
					<path class="st29" d="M902.26,1313.11h-0.3c-1.74,0-3.14-1.42-3.1-3.14l4.7-201.91l13.83-1.6l-11.79,203.53
						C905.5,1311.74,904.03,1313.11,902.26,1313.11z"/>
				</g>
				<g>
					<path class="st29" d="M821.67,1313.11h-0.3c-1.74,0-3.14-1.42-3.1-3.14l4.7-201.91l13.83-1.6l-11.79,203.53
						C824.91,1311.74,823.44,1313.11,821.67,1313.11z"/>
				</g>
				<g>
					<path class="st29" d="M1044.06,1313.11h0.29c1.74,0,3.14-1.42,3.1-3.14l-4.7-201.91l-13.83-1.6l11.79,203.53
						C1040.82,1311.74,1042.29,1313.11,1044.06,1313.11z"/>
				</g>
				<path class="st29" d="M812.5,1095.54V957.18c0-24.35,19.89-44.08,44.43-44.08H957.4c24.54,0,44.43,19.74,44.43,44.08v143.65
					L812.5,1095.54z"/>
				<path class="st29" d="M1019.83,1117.38H828.28c-8.71,0-15.77-7.06-15.77-15.77v-6.07h207.32V1117.38z"/>
				<path class="st29" d="M1042.01,1117.38H897.37c-6.03,0-10.92-4.89-10.92-10.92v0c0-6.03,4.89-10.92,10.92-10.92h144.64
					c6.03,0,10.92,4.89,10.92,10.92v0C1052.93,1112.49,1048.04,1117.38,1042.01,1117.38z"/>
			</g>
			<g>
				<path class="st34" d="M1152.87,1232.6c1.4,6.95,11.39,5.79,22.55,3.09c11.16-2.71,8.51,0.51,24.39-1.23s20.7-7.62,21.18-9.97
					c0.43-2.08-7.42-2.81-15.84-3.78c-1.06-0.12-2.12-0.25-3.19-0.38c-9.51-1.18-16.47-7.27-25.1-12.27
					c-8.18-4.73-20.38-24.02-20.38-24.02l-21.79,1.71c0,0,11.43,17.23,15.85,24.72c2.6,4.41,2.46,10.23,2.14,14.73
					C1152.53,1227.66,1152.37,1230.16,1152.87,1232.6z"/>
				<path class="st35" d="M1175.42,1235.69c11.16-2.71,8.51,0.51,24.39-1.23s20.7-7.62,21.18-9.97c0.43-2.08-7.42-2.81-15.84-3.78
					l-0.08,0.16c0,0-9.53,6.7-22.75,7.02c-10.78,0.26-22.19-2.8-29.64-2.68c-0.17,2.45-0.33,4.94,0.17,7.39
					C1154.27,1239.56,1164.26,1238.4,1175.42,1235.69z"/>
				<path class="st34" d="M965.64,1263.71c-4.33,5.64,3.16,12.31,12.59,18.83c9.43,6.52,5.24,6.67,17.07,17.34
					c11.83,10.67,19.45,10.36,21.54,9.17c1.86-1.05-2.78-7.38-7.62-14.28c-0.61-0.87-1.22-1.74-1.82-2.62
					c-5.39-7.86-5.4-17.06-7.33-26.79c-1.83-9.22,13.34-43.09,13.34-43.09l-24.37-3.04c0,0-3.18,20.46-5.92,28.7
					c-1.61,4.85-8.38,8.05-11.99,10.78C969.16,1260.19,967.17,1261.72,965.64,1263.71z"/>
				<path class="st35" d="M978.23,1282.54c9.43,6.52,5.24,6.67,17.07,17.34c11.83,10.67,19.45,10.36,21.54,9.17
					c1.86-1.05-2.78-7.38-7.62-14.28l-0.17,0.05c0,0-11.37-2.66-20.35-12.29c-7.33-7.85-12.56-18.37-17.58-23.83
					c-1.96,1.49-3.96,3.03-5.48,5.02C961.32,1269.36,968.8,1276.02,978.23,1282.54z"/>
				<path class="st43" d="M1065.18,1090.53l-22.26,59.43l-29.06,77.6c0,0-7.89,0.76-15.44-1.4c-6.95-1.99-14.93-7.21-14.93-7.21
					s8.07-83.32,23.12-131.15c3.86-12.28,8.18-22.21,12.95-27.8C1042.9,1032.64,1065.18,1090.53,1065.18,1090.53z"/>
				<path class="st38" d="M1042.54,996.14c-14.58-4.67-58.53-1.88-100.31,6.23l-6.4-11.11l-90.24-6.99c0,0-29.78,65.53-13.48,107.28
					c2.4,6.14,7.16,10.07,15.27,10.2c0,0,1.31,0,1.32,0c0,0,53.71-0.03,71.15-0.03c44.88,0,94.98-30.61,101.46-31.9
					c10.61-2.11,14.85,18.95,25.46,41.05c10.61,22.1,99.72,97.89,99.72,97.89s13.7,0.14,19.35-1.97c6.08-2.26,8.31-5.2,8.31-5.2
					S1075.43,1006.67,1042.54,996.14z"/>
				<path class="st35" d="M904.24,720.23c-12.7-3-29.95,0.52-32.81,0.85c-34.27,3.97-41.93,56.79-39.38,71.56
					c4.7,27.23-8.48,34.9-24.21,56.68c-31.54,43.67-9.75,79.62,15.92,88.53c15.4,5.35,36.39-9.21,36.39-9.21
					c0.39,0.14,54.49-51.11,81.26-76C986.38,834.24,936.61,727.88,904.24,720.23z"/>
				<path class="st34" d="M911.57,844.77c0.16,0.05-13.95,9.2-25.46,7.28c-10.82-1.8-22.27-15.81-22.13-15.86
					c4.37-1.32,8.24-6.39,5.51-32.51l2.06,0.19l34.58,3.29c0,0,0.3,10.66,1.28,20.64C908.24,836.18,909.55,844.07,911.57,844.77z"/>
				<path class="st37" d="M906.13,807.16c0,0,0.3,10.66,1.28,20.64c-19.03,1.36-30.79-14.82-35.86-23.93L906.13,807.16z"/>
				<path class="st34" d="M913.42,815.97c0,0-44.81,5.2-47.65-22.54c-2.83-27.74-10.52-45.75,17.97-50.24
					c28.49-4.49,35.14,5.54,38.36,14.57C925.32,766.79,925.01,813.91,913.42,815.97z"/>
				<path class="st35" d="M916.76,743.51c0,0-21.64,30.74-40.02,37.43c-18.38,6.69-27.06,2.49-27.06,2.49s8.77-11.98,11.66-28.46
					c0.85-4.86,4.25-8.9,8.94-10.53C883.45,739.87,908.86,732.88,916.76,743.51z"/>
				<path class="st35" d="M898.87,745.77c0,0,11.57,6.55,16.19,12.42c4.46,5.66,9.22,20.68,8.53,27.3c0,0,7.29-31.55-4.38-43.03
					C906.84,730.29,898.87,745.77,898.87,745.77z"/>
				<path class="st32" d="M946.03,918.37c-1.35,89.81-0.37,71.05-10.27,79.57c-2.39,2.05-9.09,3.27-17.92,3.85
					c-27.76,1.83-76.55-2.71-78.4-7.8c-6.4-17.61-1.88-23.08-7.22-50.04c-0.56-2.87-1.25-5.97-2.05-9.35
					c-4.45-18.52-8.79-24.82,7.01-54.57c14.33-26.95,29.8-48.48,31.14-47.69c37.8,22.27,40.26,3.21,40.26,3.21
					S946.69,874.56,946.03,918.37z"/>
				<path class="st38" d="M1042.92,1149.96l-29.72,80.83c0,0-10.68,3.45-18.45,2.33c-7.92-1.14-12.27-5.43-12.27-5.43
					s9.08-92.06,24.13-139.89L1042.92,1149.96z"/>
				<path class="st32" d="M908.57,835.55c0,0,38.9,6.54,43.47,23.16c4.57,16.62,37.97,108.19,37.97,108.19s-26.3,9.65-35.43,0.58
					c-9.13-9.06-31.79-84.1-31.79-84.1L908.57,835.55z"/>
				<path class="st44" d="M917.84,1001.79c-27.76,1.83-76.55-2.71-78.4-7.8c-6.4-17.61-1.88-23.08-7.22-50.04l13.02-29.41
					c0,0-1.84,33.66,10.54,44.61c12.37,10.96,50.69,21.15,56.71,30.3C915.37,993.85,917.28,998.25,917.84,1001.79z"/>
				<g>
					<path class="st34" d="M920.1,982.63c0,0,8.27,7.07,10.62,7.65c2.35,0.57,3.69,0.04,3.69,0.04l-6.02-7L920.1,982.63z"/>
					<path class="st34" d="M916.82,974.29l20.93,5.36c0,0-0.54,1.48-2.91,1.84c-2.37,0.36-8.73-0.6-8.73-0.6L916.82,974.29z"/>
					<path class="st34" d="M881.33,985.74c0,0,29.88-13.19,35.49-11.45c5.61,1.74,19.99,9.3,22.25,12.48
						c2.26,3.18-11.78-0.4-16.16-0.67c-2.84-0.18-9.43,3.69-12.7,5.55c-13.77,7.85-23.33,7.15-23.33,7.15L881.33,985.74z"/>
				</g>
				<path class="st32" d="M868.31,832.35c0,0-42.28,7.87-50.11,19.5c-17.09,25.37-53.46,130.47-33.09,144.56
					c22.94,15.87,104.41,4.15,104.41,4.15s2.71-12.57-1.06-18.65c-3.77-6.08-65.07-15.91-67.9-18.71
					c-2.83-2.81,27.95-43.4,24.67-51.17C834.73,887.14,868.31,832.35,868.31,832.35z"/>
				<g>
					<path class="st34" d="M1035.42,981.26c0,0,29.58,7.93,32.62,12.48c3.04,4.56,9,18.49,8.75,22.12
						c-0.25,3.64-8.33-7.19-11.36-9.96c-1.96-1.79-9.05-2.85-12.54-3.41c-8.79-1.42-13.03-5.41-16.33-7.4
						c-2.21-1.33-4.89-1.09-4.89-1.09L1035.42,981.26z"/>
					<path class="st34" d="M1065.46,1001.72c0,0,1.8,9.99,3.17,11.79s2.66,2.19,2.66,2.19l-0.21-8.63L1065.46,1001.72z"/>
					<path class="st34" d="M1068.04,993.74l12.03,16.17c0,0-1.28,0.76-3.21-0.37c-1.94-1.12-5.99-5.55-5.99-5.55L1068.04,993.74z"/>
					<path class="st34" d="M1036.56,995.09c0,0,2.74,6.61,8.22,8.97c5.48,2.37,9.5,5.93,10.37,4.65c0.88-1.28-4.15-8.01-4.15-8.01
						L1036.56,995.09z"/>
				</g>
				<path class="st32" d="M982.16,945.24l62.22,39.03c0,0-6.54,8.67-8.72,9.47c-11.52,4.19-63.34,0.18-81.08-26.26L982.16,945.24z"
					/>
				<g>
					<path class="st45" d="M957.5,987.66c3.67,0,40.19-2.51,40.19-2.51s-1.05,6.42,1.2,9.86l-35.59,6.76l-7.32-2.13L957.5,987.66z"
						/>
					<g>
						<path class="st33" d="M896.59,993.49l60.91-5.82c0,0-2.14,11.18,5.81,14.1l-67.15,4.87
							C896.15,1006.64,890.75,999.08,896.59,993.49z"/>
						<path class="st33" d="M997.59,985.95l-41.17,3.14c0,0,0.31-1.41,1.08-1.43c0.77-0.02,40.89-2.91,40.89-2.91l-0.14,1.12
							L997.59,985.95z"/>
						<polygon class="st33" points="963.31,1001.76 999.56,994.93 999.23,994 960.59,1001.34 						"/>
					</g>
				</g>
			</g>
		</g>
		<g>
			<g>
				<g>
					<path class="st29" d="M541.42,1312.8h-0.33c-1.93,0-3.48-1.58-3.44-3.51l5.21-225.46l15.35-1.79l-13.09,227.26
						C545.02,1311.26,543.39,1312.8,541.42,1312.8z"/>
				</g>
				<g>
					<path class="st29" d="M451.96,1312.8h-0.33c-1.93,0-3.48-1.58-3.44-3.51l5.21-225.46l15.35-1.79l-13.09,227.26
						C455.55,1311.26,453.92,1312.8,451.96,1312.8z"/>
				</g>
				<g>
					<path class="st29" d="M698.83,1312.8h0.33c1.93,0,3.48-1.58,3.44-3.51l-5.21-225.46l-15.35-1.79l13.09,227.26
						C695.24,1311.26,696.86,1312.8,698.83,1312.8z"/>
				</g>
				<path class="st29" d="M441.78,1069.85V915.35c0-27.18,22.08-49.22,49.32-49.22h111.53c27.24,0,49.32,22.04,49.32,49.22v160.4
					L441.78,1069.85z"/>
				<path class="st29" d="M671.93,1094.24H459.34c-9.7,0-17.56-7.86-17.56-17.56v-6.83h230.15V1094.24z"/>
				<path class="st29" d="M696.49,1094.24H536.07c-6.74,0-12.19-5.46-12.19-12.19l0,0c0-6.73,5.46-12.19,12.19-12.19h160.42
					c6.74,0,12.19,5.46,12.19,12.19l0,0C708.69,1088.78,703.23,1094.24,696.49,1094.24z"/>
			</g>
			<g>
				<path class="st45" d="M610.13,809.07c0,0-9.33,7.88-11.36,28.31c-1.54,15.52,9.31,135.97,17.47,145.55
					c22.97,26.94,51.75,15.56,63.03,19.64l10.64-9.48c0,0-37.4-27.39-40.24-36.32C638.71,922.37,645.5,822.06,610.13,809.07z"/>
				<path class="st43" d="M603.42,710.82c0,0,0.63-22.09-28.73-26.43c-29.36-4.33-37.48,2.48-42.47,9.91
					c-4.99,7.43-14.35,37.77-13.42,49.85c0.94,12.07,34.43,27.01,33.88,34.05C552.14,785.25,603.42,710.82,603.42,710.82z"/>
				<path class="st34" d="M739.62,1293.73c-0.95,7.46,9.31,9.66,21.25,10.7c11.94,1.04,8.24,3.38,24.52,6.97
					c16.28,3.6,23.01-0.69,24.28-2.89c1.13-1.94-6.38-5.33-14.38-9.13c-1.01-0.48-2.01-0.96-3.02-1.45
					c-8.99-4.39-13.83-12.86-20.68-20.79c-6.49-7.52-12.06-31.02-12.06-31.02l-22.1-5.62c0,0,5.5,21.17,7.36,30.2
					c1.09,5.31-1.01,11.12-2.84,15.53C740.95,1288.65,739.95,1291.1,739.62,1293.73z"/>
				<path class="st35" d="M760.87,1304.44c11.94,1.04,8.24,3.38,24.52,6.97c16.28,3.6,23.01-0.69,24.28-2.89
					c1.13-1.94-6.38-5.33-14.38-9.13l-0.13,0.14c0,0-11.66,3.53-24.83-0.61c-10.74-3.37-20.98-10.29-28.38-12.68
					c-0.99,2.4-1.99,4.86-2.32,7.49C738.67,1301.2,748.93,1303.4,760.87,1304.44z"/>
				<path class="st41" d="M574.16,989.36c0,0,147.74,15.21,172.09,37.65c24.35,22.44,20.01,231.5,20.01,231.5
					c-3.79,3.9-6.59,3.81-12.58,3.35c-5.75-0.45-17.47-5.35-17.47-5.35s-31.64-102.66-32.04-126.43c-0.4-23.77-5.4-64.1-15.45-66.48
					c-10.05-2.38-129.66,10.93-142.77-26.56c-13.11-37.49,8.66-68.33,8.66-68.33L574.16,989.36z"/>
				<path class="st45" d="M505.15,1027.07c6.38,4.24,17.77,10.76,36.9,11.44c34.22,1.24,76.93-2.81,85.34-10.69
					c2.18-2.03,3.25-5.41,3.55-9.68c0.93-13.03-5.35-34.47-9.56-52.21c-2.73-11.53-4.6-21.48-3.07-26.57
					c4.64-15.49,19.07-47.06,20.31-57.44c1.25-10.38-11.23-65.97-28.49-72.85c-17.26-6.89-83.85,0-83.85,0
					c-26.01,5.24-27.11,60.27-18.47,107.11c0.22,1.21,0.45,2.41,0.68,3.59C517.86,967.35,487.36,1015.25,505.15,1027.07z"/>
				<g>
					<path class="st34" d="M591.18,819.19c-0.47,3.02-8.8,7.91-26.59,3.26c-17.06-4.46-19.1-9.97-19.1-13.61
						c0-4.31,7.41-10.11,7.32-36.62l2.04,0.4l34.39,6.76c0,0-0.78,10.74-0.81,20.85C588.4,808.73,591.96,814.17,591.18,819.19z"/>
					<path class="st37" d="M589.23,779.38c0,0-0.78,10.74-0.81,20.85c-19.24-0.54-29.41-17.96-33.58-27.61L589.23,779.38z"/>
					<path class="st34" d="M595.66,788.96c0,0-45.53,0.75-45.56-27.39c-0.03-28.14-5.93-46.99,23.14-48.66
						c29.07-1.67,34.73,9.07,37.04,18.46C612.59,740.75,607.5,788.04,595.66,788.96z"/>
					<path class="st43" d="M593.97,712.22c0,0-12.47,33.01-31.6,37.89c-19.13,4.88-27.43-0.2-27.43-0.2s14.67-11.57,17.72-31.76
						C552.67,718.15,584.57,696.5,593.97,712.22z"/>
					<path class="st43" d="M590.88,714.9c0,0,9.31,7.37,11.58,14.54c2.27,7.17,3.29,21.92,7.62,21.41c0,0,9.39-22.44-1.16-35.13
						C597.73,702.25,590.88,714.9,590.88,714.9z"/>
				</g>
				<path class="st34" d="M628.66,1299.87c-0.11,7.53,10.33,8.54,22.31,8.2c11.98-0.33,8.56,2.42,25.14,4.13
					c16.58,1.71,22.79-3.32,23.8-5.64c0.9-2.06-6.94-4.56-15.31-7.43c-1.05-0.36-2.11-0.73-3.16-1.1
					c-9.43-3.33-15.18-11.19-22.87-18.29c-7.29-6.72,8.8-39.26,8.8-39.26l-21.09-10.36c0,0-4,23.23-9.15,43.55
					c-1.33,5.25-5.67,13.9-6.99,18.49C629.41,1294.66,628.7,1297.22,628.66,1299.87z"/>
				<path class="st46" d="M506.06,1021.48c6.38,4.24,16.87,16.35,35.99,17.03c31.57-7.12,67.5-15.42,88.89-20.37
					c0.93-13.03-5.35-34.47-9.56-52.21c-24.93,7.55-62.03-18.18-74.5-28.35c-13.11-10.68-12.69-46.28-12.69-46.28l-26.37,24.87
					c0.22,1.21,0.45,2.41,0.68,3.59C517.86,967.35,488.27,1009.66,506.06,1021.48z"/>
				<path class="st35" d="M650.97,1308.07c11.98-0.33,8.56,2.42,25.14,4.13c16.58,1.71,22.79-3.32,23.8-5.64
					c0.9-2.06-6.94-4.56-15.31-7.43l-0.12,0.15c0,0-11.19,4.84-24.74,2.24c-11.04-2.12-22-7.83-29.62-9.35
					c-0.71,2.5-1.43,5.06-1.46,7.71C628.55,1307.4,638.99,1308.41,650.97,1308.07z"/>
				<path class="st33" d="M542.28,998.3c37.51-1.06,149.54,7.81,171.07,23.91c26.49,19.82-49.19,234.14-49.19,234.14
					s-8.79,0.84-11.57,0.53c-12.02-1.35-16.91-4.98-16.91-4.98s0.29-126.14,9.14-150.27c8.17-22.3,13.18-30.18,2.94-31.51
					c-10.24-1.33-138,14.84-148.66-23.43c-8.33-29.89,3.98-57.56,3.98-57.56S507.68,999.28,542.28,998.3z"/>
				<path class="st45" d="M526.29,809.07c0,0-26.06,2.19-28.08,22.63c-1.54,15.52-12.87,125.57-4.71,135.15
					c22.97,26.94,99.55,32.64,110.83,36.73l3.1-12.74c0,0-81.75-40.87-80.51-50.16C528.16,931.39,551.28,805.39,526.29,809.07z"/>
				<path class="st43" d="M546.4,695.5c0,0,1.87-11.79-14.61-14.83c-16.48-3.04-16.78,31.68-18.55,40.05
					c-1.77,8.37,2.64,13.39,8.92,13.9C528.45,735.13,546.4,695.5,546.4,695.5z"/>
				<g>
					<path class="st34" d="M608.3,990.28c0,0,23.28-6.54,28.83-5.01c5.55,1.53,24.55,14.01,21.88,17.4
						c-2.67,3.39-19.41-2.03-27.11-1c-7.7,1.03-13.66,4.8-19.21,3.98c-5.55-0.82-11.34-2.98-11.34-2.98L608.3,990.28z"/>
					<path class="st34" d="M608.3,990.28c0,0,11.39-5.81,14.63-9.11c0.41-0.42,1.1-0.33,1.41,0.16c0.87,1.36,1.68,3.98-2.31,6.59
						C616.29,991.67,608.3,990.28,608.3,990.28z"/>
				</g>
				<g>
					<path class="st34" d="M689.91,993.09c0,0,24.16,1.31,28.91,4.54c4.75,3.23,18.64,21.16,15,23.5
						c-3.64,2.35-17.7-8.17-25.32-9.68c-7.62-1.51-14.49,0.14-19.47-2.42c-4.98-2.56-9.76-6.47-9.76-6.47L689.91,993.09z"/>
				</g>
			</g>
		</g>
		<g>
			<g>
				<path class="st47" d="M523.92,1314.76h-98.31c-4.73-5.73-2.99-26.85-2.27-33.75c0.15-1.39,0.25-2.2,0.25-2.2
					s33.57-26.64,38.18-6.24c0.14,0.64,0.31,1.27,0.5,1.88c5.81,19.08,31.87,27.75,46.92,30.17
					C518.97,1306.2,522.59,1311.25,523.92,1314.76z"/>
				<path class="st35" d="M255.68,997.81c3.55,0,168.4,30.71,195.67,64.2c13.62,16.73,15.65,209.95,15.65,209.95
					s-16.85,20.73-53.25,8.69c0,0-26.69-132.2-24.71-172.3c0.55-11.09-112.63-1.6-133.35-6.92c-20.71-5.32-71.33-50.03-60.18-71.81
					C206.65,1007.84,255.68,997.81,255.68,997.81z"/>
				<path class="st34" d="M375.04,988.73c0,0,10.55,9.03,21.37,11.59c6.17,1.46,12.15,3.12,15.7,4.73
					c9.79,4.46,28.36,24.36,26.63,26.34c-5.54,6.34-27.84-10.18-32.11-9.01c-4.27,1.17,7,10.77,2.53,13.38
					c-2.33,1.36-6.73-6.93-10.85-8.1c-5.57-1.58-9.26-9.92-10.93-10.49c-3.24-1.11-16.79-13.16-16.79-13.16L375.04,988.73z"/>
				<path class="st48" d="M567.37,1314.76h-98.31c-4.73-5.73-2.99-26.85-2.27-33.75c0.15-1.39,0.25-2.2,0.25-2.2
					s33.57-26.64,38.18-6.24c0.14,0.64,0.31,1.27,0.5,1.88c5.81,19.08,31.87,27.75,46.91,30.17
					C562.42,1306.2,566.04,1311.25,567.37,1314.76z"/>
				<path class="st49" d="M304.25,997.81c3.55,0,168.4,30.71,195.67,64.2c13.62,16.73,15.65,209.95,15.65,209.95
					s-16.85,20.73-53.25,8.69c0,0-26.69-132.2-24.71-172.3c0.54-11.09-112.63-1.6-133.35-6.92c-20.72-5.32-71.33-50.03-60.18-71.81
					C255.23,1007.84,304.25,997.81,304.25,997.81z"/>
				<path class="st34" d="M293.94,799.04c-11.86-0.97-24.29-4.11-35.04-7.57c-13.43-4.33-24.26-10.65-17.28-22.83
					c6.43-11.23,16.84-36.31,16.14-57.09l25,19.99l16.98,13.58c0,0-0.07,8-1.93,22.03c-0.34,2.56-0.74,5.32-1.2,8.27
					c-0.38,2.38,0.73,4.76,2.79,6.03c0.13,0.08,0.26,0.16,0.38,0.24C308.21,786.95,303.87,799.85,293.94,799.04z"/>
				<path class="st37" d="M299.73,741.82c0,0,0.87,2.91-0.62,13.64c-15.14-2.45-29.29-14.43-29.29-14.43
					c7.71-2.1,10.51-10.36,16.25-9.59L299.73,741.82z"/>
				<path class="st34" d="M313.73,744.26c0,0-58.23,9.6-63.7-26.47c-5.47-36.07-16.66-59.13,20.28-66.78
					c36.95-7.65,46.27,5.03,51.05,16.63C326.14,679.24,328.73,740.84,313.73,744.26z"/>
				<path class="st49" d="M329.93,651.68c2.5,8.69-4.19,19.27-15.42,22.75c-16.67,5.17-12.99,25.47-20.49,25.19
					c-7.5-0.28-10.53-11.67-17.23-2.57c-5.72,7.76,4.76,16.96,4.04,21.22c-1.24,7.31-12.77,22.26-23.17,21.51
					c-10.4-0.75-29.85-49.77-25.96-64.94c3.89-15.17,19.45-31.16,34.18-33.37c14.73-2.21,35.18,4.1,39.91,4.1
					C310.5,645.58,328.58,646.98,329.93,651.68z"/>
				<path class="st32" d="M344.37,986.99c-0.97,8.33-2.74,13.99-5.52,15.83c-8.68,5.77-20.19,12.94-33.04,20.04
					c-45.55,25.2-107.91,49.52-120.59,6.93c-14.9-50.02-5.11-143.95,9.5-202.29c8.41-33.61,31.68-68.88,47.4-68.84
					c26.8,0.05,65.33,7.07,80.88,45.14c6.02,14.75,14.87,65.86,19.39,112.68C345.1,944.39,346.25,970.75,344.37,986.99z"/>
				<path class="st44" d="M239.43,758.98l6.07-13.56c0,0,53.8,5.43,62.93,36.11C308.43,781.53,266.84,759.64,239.43,758.98z"/>
				<path class="st44" d="M344.37,986.99c-0.97,8.33-2.74,13.99-5.52,15.83c-8.68,5.77-20.19,12.94-33.04,20.04
					c-13.4-8.09-40.92-27.38-47.36-50.11c-8.41-29.73-2.51-66.31-2.51-66.31L344.37,986.99z"/>
				<path class="st32" d="M250.35,804.73c0,0,4.67,127.77,11.99,153.03c12.49,43.08,126.37,58.42,126.37,58.42s6.72-7.55,3.71-20.08
					c0,0-68.09-53.25-70.08-63.38c-1.99-10.14,14.83-78.83-4.4-103.81C298.72,803.93,263.27,782.28,250.35,804.73z"/>
			</g>
			<g>
				<g>
					<path class="st29" d="M107.56,1313.55l-0.38-0.01c-3.07-0.06-5.44-2.54-5.15-5.4l20.46-202.74l17.85,1.58l-29.38,203.83
						C110.75,1312.4,109.28,1313.58,107.56,1313.55z"/>
				</g>
				<g>
					<path class="st29" d="M212.87,1313.55l-0.38-0.01c-3.07-0.06-5.44-2.54-5.15-5.4l20.46-202.74l17.85,1.58l-29.38,203.83
						C216.06,1312.4,214.59,1313.58,212.87,1313.55z"/>
				</g>
				<g>
					<path class="st29" d="M410.58,1313.55l0.38-0.01c3.07-0.06,5.44-2.54,5.15-5.4l-20.46-202.74l-17.85,1.58l29.38,203.83
						C407.39,1312.4,408.86,1313.58,410.58,1313.55z"/>
				</g>
				<path class="st29" d="M113.35,1076.68L93.93,907.34c-2.55-24.4,5.68-48.3,41.17-50.14l62.44-3.77
					c37.01-1.52,53.71,29.04,58.4,52.57L293,1092.13L113.35,1076.68z"/>
				<path class="st29" d="M125.63,1108.36h273.42c6.58,0,11.97-5.39,11.97-11.97v-8.52c0-6.58-5.39-11.97-11.97-11.97H113.66v20.49
					C113.66,1102.98,119.04,1108.36,125.63,1108.36z"/>
				<path class="st29" d="M122.95,1108.36h160.75c5.11,0,9.29-4.18,9.29-9.29v-13.87c0-5.11-4.18-9.29-9.29-9.29H113.66v23.16
					C113.66,1104.18,117.84,1108.36,122.95,1108.36z"/>
			</g>
		</g>
		<path class="st50" d="M2495.88,1322.26H30.46c-2.27,0-4.12-1.85-4.12-4.12v-1.82c0-2.27,1.85-4.12,4.12-4.12h2465.42
			c2.26,0,4.12,1.85,4.12,4.12v1.82C2500,1320.4,2498.15,1322.26,2495.88,1322.26z"/>
		<g>
			<path class="st29" d="M550.99,562.3h-93.01c-5.21,0-9.47-4.26-9.47-9.47v-88.82c0-5.21,4.26-9.47,9.47-9.47h93.01
				c5.21,0,9.47,4.26,9.47,9.47v88.82C560.46,558.04,556.2,562.3,550.99,562.3z"/>
			<path class="st44" d="M546.96,557.64h-84.95c-4.76,0-8.65-3.89-8.65-8.65v-81.13c0-4.76,3.89-8.65,8.65-8.65h84.95
				c4.76,0,8.65,3.89,8.65,8.65v81.13C555.61,553.75,551.72,557.64,546.96,557.64z"/>
			<g>
				<g>
					<ellipse class="st29" cx="504.49" cy="469.05" rx="2.32" ry="2.3"/>
					<path class="st29" d="M520.88,472.3c0.62-1.11,2.03-1.51,3.15-0.89c1.12,0.62,1.52,2.02,0.9,3.13
						c-0.62,1.11-2.03,1.51-3.15,0.89C520.66,474.81,520.26,473.41,520.88,472.3z"/>
					<path class="st29" d="M536.91,484.94c1.08-0.69,2.51-0.38,3.21,0.69c0.69,1.07,0.38,2.49-0.69,3.18
						c-1.08,0.69-2.51,0.38-3.21-0.69C535.53,487.05,535.84,485.63,536.91,484.94z"/>
					<path class="st29" d="M544.85,504.5c1.28,0,2.32,1.03,2.32,2.3c0,1.27-1.04,2.3-2.32,2.3c-1.28,0-2.32-1.03-2.32-2.3
						C542.53,505.53,543.57,504.5,544.85,504.5z"/>
					<ellipse class="st29" cx="539.16" cy="528.82" rx="2.32" ry="2.3"/>
					<path class="st29" d="M526.24,541.68c0.91,0.9,0.91,2.36,0,3.25c-0.91,0.9-2.37,0.9-3.28,0c-0.91-0.9-0.91-2.36,0-3.25
						C523.86,540.78,525.33,540.78,526.24,541.68z"/>
					<ellipse class="st29" cx="504.49" cy="549.15" rx="2.32" ry="2.3"/>
				</g>
				<g>
					<path class="st29" d="M488.02,472.3c-0.62-1.11-2.03-1.51-3.15-0.89c-1.12,0.62-1.52,2.02-0.9,3.13
						c0.62,1.11,2.03,1.51,3.15,0.89C488.24,474.81,488.65,473.41,488.02,472.3z"/>
					<path class="st29" d="M471.99,484.94c-1.08-0.69-2.51-0.38-3.21,0.69c-0.69,1.07-0.38,2.49,0.69,3.18
						c1.08,0.69,2.51,0.38,3.21-0.69C473.38,487.05,473.07,485.63,471.99,484.94z"/>
					<path class="st29" d="M464.05,504.5c-1.28,0-2.32,1.03-2.32,2.3c0,1.27,1.04,2.3,2.32,2.3c1.28,0,2.32-1.03,2.32-2.3
						C466.37,505.53,465.33,504.5,464.05,504.5z"/>
					<ellipse class="st29" cx="469.75" cy="528.82" rx="2.32" ry="2.3"/>
					<path class="st29" d="M482.67,541.68c-0.91,0.9-0.91,2.36,0,3.25c0.91,0.9,2.37,0.9,3.28,0c0.91-0.9,0.91-2.36,0-3.25
						C485.04,540.78,483.57,540.78,482.67,541.68z"/>
				</g>
			</g>
			<g>
				<path class="st29" d="M503.86,506.8c0-1.27,1.04-2.3,2.32-2.3c1.28,0,2.32,1.03,2.32,2.3c0,1.27-1.04,2.3-2.32,2.3
					C504.9,509.1,503.86,508.07,503.86,506.8z"/>
				<g>
					<rect x="505.87" y="478.06" class="st29" width="0.63" height="28.74"/>
				</g>
				<g>
					<polygon class="st29" points="506.48,507.5 505.3,506.02 520.66,494.05 521.84,495.54 					"/>
				</g>
			</g>
		</g>
	</g>
</g>
<g id="DESIGNED_BY_FREEPIK" class="st0">
	<g class="st1">
		<g id="XMLID_319_">
			<g id="XMLID_338_">
				<path id="XMLID_346_" class="st51" d="M1260.1,888.08c-0.43,0.44-0.8,0.93-1.11,1.45l-0.46-0.24c-0.07-0.3-0.35-0.5-0.66-0.47
					c-0.33,0.04-0.57,0.34-0.53,0.67c0.04,0.33,0.34,0.57,0.67,0.53c0.07-0.01,0.13-0.03,0.18-0.05l0.45,0.23
					c-0.25,0.55-0.43,1.14-0.54,1.74l0.75,0.13c0.23-1.31,0.85-2.51,1.79-3.47L1260.1,888.08z"/>
				<path id="XMLID_345_" class="st51" d="M1265.59,885.78c-0.17,0-0.34,0.01-0.51,0.02l-0.07-0.63c0.19-0.15,0.3-0.39,0.27-0.64
					c-0.04-0.39-0.4-0.67-0.79-0.63s-0.67,0.4-0.63,0.8c0.03,0.25,0.19,0.46,0.4,0.56l0.07,0.62c-0.71,0.12-1.4,0.33-2.06,0.65
					l0.33,0.68c0.94-0.45,1.94-0.67,3-0.67c0.5,0,0.99,0.05,1.47,0.16l0.16-0.74C1266.69,885.84,1266.14,885.78,1265.59,885.78z"/>
				<path id="XMLID_344_" class="st51" d="M1272.19,888.33c0.33-0.04,0.57-0.34,0.53-0.67c-0.04-0.33-0.34-0.57-0.67-0.53
					c-0.31,0.04-0.54,0.3-0.53,0.61l-0.42,0.36c-0.42-0.43-0.89-0.81-1.41-1.14l-0.4,0.64c1.13,0.71,2.02,1.73,2.56,2.92l0.69-0.31
					c-0.25-0.55-0.57-1.07-0.94-1.54l0.4-0.35C1272.06,888.33,1272.13,888.34,1272.19,888.33z"/>
				<path id="XMLID_343_" class="st51" d="M1265.04,895.99c-0.39,0.02-0.78,0.04-1.16,0.04c-0.88,0-1.73-0.06-2.48-0.18
					c-0.39-0.06-0.85-0.15-1.27-0.29c1.05,1.86,3.07,3.12,5.39,3.12c2.86,0,5.26-1.92,5.95-4.5c-0.68,0.45-1.51,0.83-2.46,1.12
					C1267.84,895.66,1266.46,895.9,1265.04,895.99z"/>
				<path id="XMLID_339_" class="st51" d="M1265.59,887.3c-3.35,0-6.08,2.67-6.08,5.94c0,0.42,0.05,0.85,0.14,1.26
					c0.67,0.48,2.71,0.89,5.35,0.73c2.88-0.17,5.3-0.96,6.67-2.16c0-0.19-0.02-0.39-0.04-0.58
					C1271.24,889.53,1268.65,887.3,1265.59,887.3z M1263.43,893.81c-1.02,0-1.85-0.83-1.85-1.85c0-1.02,0.83-1.85,1.85-1.85
					s1.85,0.83,1.85,1.85C1265.28,892.98,1264.45,893.81,1263.43,893.81z M1268.17,892.9c-0.75,0-1.36-0.61-1.36-1.36
					s0.61-1.36,1.36-1.36s1.36,0.61,1.36,1.36S1268.92,892.9,1268.17,892.9z"/>
			</g>
			<path id="XMLID_336_" class="st51" d="M1281.6,889.16c-0.29-0.12-0.81-0.31-1.38-0.24c-0.55,0.07-0.84,0.34-0.84,1.01v0.87h2.23
				v1.72h-2.23v5.46h-1.93v-5.46h-1.34v-1.72h1.34v-0.89c0-1.68,0.89-2.78,2.57-2.78c0.64,0,1.16,0.12,1.59,0.31V889.16z"/>
			<path id="XMLID_334_" class="st51" d="M1286.3,892.5c-0.18-0.03-0.36-0.05-0.53-0.05c-0.89,0-1.51,0.55-1.51,1.61v3.91h-1.93
				v-7.17h1.87v0.78c0.45-0.67,1.14-0.98,2.02-0.98c0.41,0,0.85,0.13,1.1,0.34L1286.3,892.5z"/>
			<path id="XMLID_331_" class="st51" d="M1293.96,894.37c0,0.22-0.02,0.49-0.04,0.65h-5.08c0.21,1.04,0.93,1.49,1.84,1.49
				c0.62,0,1.29-0.25,1.81-0.69l1.13,1.24c-0.81,0.75-1.85,1.09-3.06,1.09c-2.2,0-3.72-1.5-3.72-3.75c0-2.26,1.48-3.8,3.63-3.8
				C1292.54,890.61,1293.96,892.14,1293.96,894.37z M1288.85,893.71h3.17c-0.18-0.92-0.73-1.44-1.56-1.44
				C1289.55,892.27,1289.02,892.82,1288.85,893.71z"/>
			<path id="XMLID_328_" class="st51" d="M1301.62,894.37c0,0.22-0.02,0.49-0.04,0.65h-5.09c0.21,1.04,0.93,1.49,1.84,1.49
				c0.62,0,1.29-0.25,1.81-0.69l1.13,1.24c-0.81,0.75-1.85,1.09-3.06,1.09c-2.2,0-3.72-1.5-3.72-3.75c0-2.26,1.48-3.8,3.63-3.8
				C1300.2,890.61,1301.61,892.14,1301.62,894.37z M1296.5,893.71h3.18c-0.18-0.92-0.73-1.44-1.56-1.44
				C1297.21,892.27,1296.67,892.82,1296.5,893.71z"/>
			<path id="XMLID_325_" class="st51" d="M1309.96,894.38c0,2.15-1.5,3.78-3.47,3.78c-0.96,0-1.64-0.38-2.11-0.93v3.71h-1.92V890.8
				h1.89v0.79c0.47-0.58,1.15-0.98,2.14-0.98C1308.47,890.61,1309.96,892.23,1309.96,894.38z M1304.29,894.38
				c0,1.13,0.75,1.98,1.84,1.98c1.14,0,1.85-0.88,1.85-1.98c0-1.09-0.71-1.98-1.85-1.98
				C1305.04,892.41,1304.29,893.25,1304.29,894.38z"/>
			<path id="XMLID_322_" class="st51" d="M1313.07,888.45c0,0.7-0.54,1.23-1.24,1.23c-0.7,0-1.23-0.53-1.23-1.23
				c0-0.7,0.53-1.24,1.23-1.24C1312.53,887.21,1313.07,887.76,1313.07,888.45z M1312.81,897.97h-1.93v-7.17h1.93V897.97z"/>
			<path id="XMLID_320_" class="st51" d="M1316.03,893.35l2.7-2.55h2.37l-3.48,3.38l3.5,3.8h-2.38l-2.72-2.9v2.9h-1.93v-10.66h1.93
				V893.35z"/>
		</g>
		<g>
			<path class="st51" d="M1184.41,897.91v-1.05c-0.53,0.72-1.39,1.23-2.39,1.23c-1.85,0-3.15-1.41-3.15-3.71
				c0-2.26,1.29-3.72,3.15-3.72c0.95,0,1.82,0.47,2.39,1.25v-3.76h1.1v9.77H1184.41z M1184.41,895.99v-3.21
				c-0.4-0.62-1.25-1.14-2.12-1.14c-1.42,0-2.27,1.17-2.27,2.74c0,1.57,0.85,2.72,2.27,2.72
				C1183.17,897.1,1184.02,896.6,1184.41,895.99z"/>
			<path class="st51" d="M1186.93,894.36c0-2.05,1.46-3.71,3.49-3.71c2.14,0,3.4,1.67,3.4,3.79v0.28h-5.73
				c0.09,1.33,1.03,2.45,2.55,2.45c0.81,0,1.63-0.32,2.18-0.89l0.53,0.72c-0.7,0.7-1.65,1.08-2.81,1.08
				C1188.44,898.08,1186.93,896.57,1186.93,894.36z M1190.4,891.56c-1.51,0-2.26,1.27-2.31,2.36h4.64
				C1192.72,892.87,1192.01,891.56,1190.4,891.56z"/>
			<path class="st51" d="M1194.61,896.97l0.57-0.79c0.47,0.54,1.36,1.01,2.33,1.01c1.08,0,1.67-0.51,1.67-1.22
				c0-1.71-4.38-0.66-4.38-3.28c0-1.1,0.95-2.04,2.64-2.04c1.2,0,2.05,0.45,2.62,1.03l-0.51,0.76c-0.42-0.51-1.2-0.89-2.11-0.89
				c-0.97,0-1.57,0.48-1.57,1.11c0,1.55,4.38,0.53,4.38,3.28c0,1.19-0.95,2.14-2.78,2.14
				C1196.31,898.08,1195.32,897.73,1194.61,896.97z"/>
			<path class="st51" d="M1201.48,889.09c0-0.41,0.34-0.75,0.73-0.75c0.41,0,0.75,0.34,0.75,0.75c0,0.41-0.34,0.73-0.75,0.73
				C1201.81,889.82,1201.48,889.5,1201.48,889.09z M1201.67,897.91v-7.08h1.1v7.08H1201.67z"/>
			<path class="st51" d="M1204.58,899.72l0.56-0.82c0.59,0.7,1.29,0.97,2.3,0.97c1.17,0,2.27-0.57,2.27-2.12v-1.01
				c-0.51,0.72-1.38,1.26-2.37,1.26c-1.85,0-3.15-1.38-3.15-3.66c0-2.27,1.29-3.68,3.15-3.68c0.95,0,1.8,0.47,2.37,1.25v-1.07h1.1
				v6.87c0,2.34-1.64,3.08-3.37,3.08C1206.24,900.78,1205.42,900.54,1204.58,899.72z M1209.71,895.87v-3.09
				c-0.38-0.62-1.23-1.14-2.11-1.14c-1.42,0-2.27,1.13-2.27,2.7c0,1.55,0.85,2.7,2.27,2.7
				C1208.48,897.03,1209.33,896.49,1209.71,895.87z"/>
			<path class="st51" d="M1217.41,897.91v-4.63c0-1.25-0.63-1.64-1.58-1.64c-0.86,0-1.68,0.53-2.09,1.1v5.17h-1.1v-7.08h1.1v1.03
				c0.5-0.59,1.46-1.2,2.52-1.2c1.48,0,2.26,0.75,2.26,2.29v4.97H1217.41z"/>
			<path class="st51" d="M1219.93,894.36c0-2.05,1.46-3.71,3.49-3.71c2.14,0,3.4,1.67,3.4,3.79v0.28h-5.73
				c0.09,1.33,1.02,2.45,2.55,2.45c0.81,0,1.63-0.32,2.18-0.89l0.53,0.72c-0.7,0.7-1.66,1.08-2.81,1.08
				C1221.44,898.08,1219.93,896.57,1219.93,894.36z M1223.4,891.56c-1.51,0-2.26,1.27-2.31,2.36h4.64
				C1225.72,892.87,1225.01,891.56,1223.4,891.56z"/>
			<path class="st51" d="M1233.35,897.91v-1.05c-0.53,0.72-1.39,1.23-2.39,1.23c-1.85,0-3.15-1.41-3.15-3.71
				c0-2.26,1.29-3.72,3.15-3.72c0.95,0,1.82,0.47,2.39,1.25v-3.76h1.1v9.77H1233.35z M1233.35,895.99v-3.21
				c-0.4-0.62-1.25-1.14-2.12-1.14c-1.42,0-2.27,1.17-2.27,2.74c0,1.57,0.85,2.72,2.27,2.72
				C1232.1,897.1,1232.95,896.6,1233.35,895.99z"/>
			<path class="st51" d="M1239.69,897.91v-9.77h1.1v3.76c0.57-0.78,1.42-1.25,2.39-1.25c1.85,0,3.15,1.46,3.15,3.72
				c0,2.3-1.3,3.71-3.15,3.71c-1,0-1.86-0.51-2.39-1.23v1.05H1239.69z M1242.9,897.1c1.44,0,2.29-1.16,2.29-2.72
				c0-1.57-0.85-2.74-2.29-2.74c-0.86,0-1.73,0.53-2.11,1.14v3.21C1241.17,896.6,1242.04,897.1,1242.9,897.1z"/>
			<path class="st51" d="M1247.53,899.68c0.16,0.07,0.42,0.12,0.6,0.12c0.48,0,0.81-0.16,1.05-0.75l0.47-1.07l-2.96-7.15h1.19
				l2.36,5.8l2.34-5.8h1.2l-3.54,8.51c-0.42,1.02-1.14,1.42-2.08,1.44c-0.23,0-0.6-0.04-0.81-0.1L1247.53,899.68z"/>
		</g>
	</g>
</g>
</svg>
